<?xml version="1.0" encoding="UTF-8" standalone="no"?>
<svg
   xmlns:dc="http://purl.org/dc/elements/1.1/"
   xmlns:cc="http://creativecommons.org/ns#"
   xmlns:rdf="http://www.w3.org/1999/02/22-rdf-syntax-ns#"
   xmlns:svg="http://www.w3.org/2000/svg"
   xmlns="http://www.w3.org/2000/svg"
   xmlns:sodipodi="http://sodipodi.sourceforge.net/DTD/sodipodi-0.dtd"
   xmlns:inkscape="http://www.inkscape.org/namespaces/inkscape"
   version="1.1"
   id="Layer_1"
   x="0px"
   y="0px"
   width="1.1326776in"
   height="1.1422161in"
   viewBox="0 0 108.73705 109.65275"
   enable-background="new 0 0 792 612"
   xml:space="preserve"
   sodipodi:docname="dart-logo.svg"
   inkscape:version="1.0.1 (3bc2e813f5, 2020-09-07)"><metadata
   id="metadata938"><rdf:RDF><cc:Work
       rdf:about=""><dc:format>image/svg+xml</dc:format><dc:type
         rdf:resource="http://purl.org/dc/dcmitype/StillImage" /><dc:title></dc:title></cc:Work></rdf:RDF></metadata><defs
   id="defs936" /><sodipodi:namedview
   pagecolor="#ffffff"
   bordercolor="#666666"
   borderopacity="1"
   objecttolerance="10"
   gridtolerance="10"
   guidetolerance="10"
   inkscape:pageopacity="0"
   inkscape:pageshadow="2"
   inkscape:window-width="1920"
   inkscape:window-height="1060"
   id="namedview934"
   showgrid="false"
   inkscape:pagecheckerboard="true"
   showborder="true"
   units="in"
   width="10in"
   inkscape:zoom="1.4035948"
   inkscape:cx="162.02559"
   inkscape:cy="105.99466"
   inkscape:window-x="0"
   inkscape:window-y="20"
   inkscape:window-maximized="0"
   inkscape:current-layer="Layer_1"
   inkscape:document-rotation="0"
   inkscape:snap-page="true"
   fit-margin-top="0"
   fit-margin-left="0"
   fit-margin-right="0"
   fit-margin-bottom="0" />




<path
   fill="#00c4b3"
   d="m 29.666048,29.853744 -7.089,-7.092 0.027,51.234 0.086,2.391 c 0.032,1.132 0.249,2.401 0.591,3.717 l 56.154,19.804004 14.033999,-6.218004 0.011,-0.02 z"
   id="path921" />
<path
   fill="#22d3c5"
   d="m 23.282048,80.103744 h 0.005 c -0.005,-0.021 -0.013,-0.045 -0.024,-0.071 0.011,0.026 0.011,0.05 0.019,0.071 z m 70.197999,13.566 m -0.01,0.02 -14.033999,6.218004 -56.148,-19.804004 c 1.071,4.118 3.448,8.749 6,11.276 l 18.321,18.221006 40.757,0.052 5.115999,-15.982006 z"
   id="path923" />
<path
   fill="#0075c9"
   d="m 22.767048,22.761744 -21.83200031,32.972 c -1.8119996,1.937 -0.9099996,5.931 2.01000001,8.873 l 12.6040003,12.706 7.922,2.791 c -0.343,-1.315 -0.559,-2.585 -0.591,-3.717 l -0.087,-2.391 z"
   id="path925" />
<path
   fill="#0075c9"
   d="m 79.898048,23.420744 c -1.317,-0.334 -2.584,-0.545 -3.723,-0.577 l -2.533,-0.093 -51.065,0.011 70.910999,70.908 h 0.006 l 6.229,-14.05 z"
   id="path927" />
<path
   fill="#00a8e1"
   d="m 79.832048,23.408744 c 0.023,0.008 0.047,0.013 0.066,0.019 v -0.006 c -0.023,-0.005 -0.043,-0.005 -0.066,-0.013 z m 11.333999,6.028 c -2.577999,-2.596 -7.141999,-4.954 -11.267999,-6.01 l 19.823999,56.193 -6.229,14.05 h -0.006 l 15.218003,-4.862 0.032,-41.723 z"
   id="path929" />
<path
   fill="#00c4b3"
   d="m 77.117048,15.547744 -12.698,-12.6099998 c -2.937,-2.90700001 -6.934,-3.81500001 -8.87,-2.00600001 l -32.972,21.82999981 51.065,-0.011 2.533,0.093 c 1.139,0.032 2.405,0.243 3.723,0.577 z m -54.54,7.214"
   id="path931" />
</svg>
