<?xml version="1.0" encoding="UTF-8" standalone="no"?>
<svg
   xmlns:dc="http://purl.org/dc/elements/1.1/"
   xmlns:cc="http://creativecommons.org/ns#"
   xmlns:rdf="http://www.w3.org/1999/02/22-rdf-syntax-ns#"
   xmlns:svg="http://www.w3.org/2000/svg"
   xmlns="http://www.w3.org/2000/svg"
   xmlns:sodipodi="http://sodipodi.sourceforge.net/DTD/sodipodi-0.dtd"
   xmlns:inkscape="http://www.inkscape.org/namespaces/inkscape"
   version="1.1"
   id="Layer_1"
   x="0px"
   y="0px"
   width="4.5in"
   height="1.3in"
   viewBox="0 0 432 124.8"
   enable-background="new 0 0 792 612"
   xml:space="preserve"
   sodipodi:docname="dart-logo.svg"
   inkscape:version="1.0.1 (3bc2e813f5, 2020-09-07)"><metadata
   id="metadata938"><rdf:RDF><cc:Work
       rdf:about=""><dc:format>image/svg+xml</dc:format><dc:type
         rdf:resource="http://purl.org/dc/dcmitype/StillImage" /><dc:title></dc:title></cc:Work></rdf:RDF></metadata><defs
   id="defs936" /><sodipodi:namedview
   pagecolor="#ffffff"
   bordercolor="#666666"
   borderopacity="1"
   objecttolerance="10"
   gridtolerance="10"
   guidetolerance="10"
   inkscape:pageopacity="0"
   inkscape:pageshadow="2"
   inkscape:window-width="1920"
   inkscape:window-height="1060"
   id="namedview934"
   showgrid="false"
   inkscape:pagecheckerboard="true"
   showborder="true"
   units="in"
   width="10in"
   inkscape:zoom="1.4035948"
   inkscape:cx="396"
   inkscape:cy="306"
   inkscape:window-x="0"
   inkscape:window-y="20"
   inkscape:window-maximized="0"
   inkscape:current-layer="Layer_1" />
<path
   fill="#231f20"
   d="m 220.95448,31.493126 c 9.061,8.29 13.589,19.655 13.589,34.425 0,14.773 -4.418,26.484 -13.251,35.091004 -8.83,8.608 -22.312,12.936 -40.436,12.936 h -31.895 V 19.387126 h 32.983 c 16.944,-10e-4 29.947,3.814 39.01,12.106 z m -15.563,56.173 c 5.206,-4.894 7.812,-12.021 7.812,-21.357 0,-9.329 -2.606,-16.653 -7.812,-21.682 -5.213,-5.029 -13.205,-7.68 -23.992,-7.68 h -12.175 v 58.086 h 13.809 c 9.693,0 17.145,-2.475 22.358,-7.367 z"
   id="path913" />
<path
   fill="#231f20"
   d="m 309.74148,113.94413 h -18.911 v -9.044 c -5.403,6.614 -11.698,9.92 -19.445,9.92 -7.745,0 -14.221,-2.24 -19.476,-6.725 -5.253,-4.485 -7.868,-10.467004 -7.868,-17.944004 0,-7.474 2.726,-12.957 8.161,-16.674 5.438,-3.715 12.875,-5.461 22.299,-5.461 h 14.979 v -0.631 c 0,-7.791 -4,-11.688 -12.242,-11.688 -3.538,0 -7.21,0.702 -11.158,2.104 -3.938,1.406 -7.239,3.147 -9.959,5.232 l -9.092,-13.185 c 9.604,-6.978 20.581,-10.466 32.903,-10.466 8.877,0 15.945,2.221 21.57,6.662 5.612,4.438 8.239,11.461 8.239,21.066 z m -20.262,-28.071004 v -2.997 h -12.67 c -8.152,0 -12.229,2.268 -12.229,7.343 0,2.627 0.969,4.508 2.918,5.914 1.947,1.404 4.736,2.04 8.363,2.04 3.625,0 6.76,-1.146 9.53,-3.364 2.758,-2.221 4.088,-5.222 4.088,-8.936 z"
   id="path915" />
<path
   fill="#231f20"
   d="m 363.49848,58.559126 c -6.071,0 -10.881,2.148 -13.87,6.452 -2.988,4.305 -4.765,9.988 -4.765,17.054 v 31.879004 h -20.262 V 40.999126 h 20.262 v 9.261 c 2.702,-2.989 6.388,-5.527 10.326,-7.611 3.945,-2.085 8.585,-3.172 12.638,-3.264 v 19.175 h -4.329 z"
   id="path917" />
<path
   fill="#231f20"
   d="m 400.24848,55.858126 v 32.188 c 0,2.81 0.828,5.008 2.278,6.59 1.446,1.586 3.223,2.381 5.214,2.381 3.81,0 7.05,-1.721 9.675,-5.167 l 7.628,14.271004 c -6.346,5.802 -13.021,8.698 -20.038,8.698 -7.026,0 -12.937,-2.309 -17.777,-6.931 -4.853,-4.62 -7.243,-10.917004 -7.243,-18.894004 v -69.609 h 20.264 v 20.262 h 21.587 l -11.14,16.21 h -10.448 z"
   id="path919" />
<path
   fill="#00c4b3"
   d="m 38.860481,34.147126 -7.089,-7.092 0.027,51.234 0.086,2.391 c 0.032,1.132 0.249,2.401 0.591,3.717 l 56.154,19.804004 14.033999,-6.218004 0.011,-0.02 z"
   id="path921" />
<path
   fill="#22d3c5"
   d="m 32.476481,84.397126 h 0.005 c -0.005,-0.021 -0.013,-0.045 -0.024,-0.071 0.011,0.026 0.011,0.05 0.019,0.071 z m 70.197999,13.566 m -0.01,0.02 -14.033999,6.218004 -56.148,-19.804004 c 1.071,4.118 3.448,8.749 6,11.276 l 18.321,18.221004 40.757,0.052 5.115999,-15.982004 z"
   id="path923" />
<path
   fill="#0075c9"
   d="m 31.961481,27.055126 -21.832,32.972 c -1.8119996,1.937 -0.9099996,5.931 2.01,8.873 l 12.604,12.706 7.922,2.791 c -0.343,-1.315 -0.559,-2.585 -0.591,-3.717 l -0.087,-2.391 z"
   id="path925" />
<path
   fill="#0075c9"
   d="m 89.092481,27.714126 c -1.317,-0.334 -2.584,-0.545 -3.723,-0.577 l -2.533,-0.093 -51.065,0.011 70.910999,70.908 h 0.006 l 6.229,-14.05 z"
   id="path927" />
<path
   fill="#00a8e1"
   d="m 89.026481,27.702126 c 0.023,0.008 0.047,0.013 0.066,0.019 v -0.006 c -0.023,-0.005 -0.043,-0.005 -0.066,-0.013 z m 11.333999,6.028 c -2.577999,-2.596 -7.141999,-4.954 -11.267999,-6.01 l 19.823999,56.193 -6.229,14.05 h -0.006 l 15.218,-4.862 0.032,-41.723 z"
   id="path929" />
<path
   fill="#00c4b3"
   d="m 86.311481,19.841126 -12.698,-12.6099996 c -2.937,-2.907 -6.934,-3.815 -8.87,-2.006 l -32.972,21.8299996 51.065,-0.011 2.533,0.093 c 1.139,0.032 2.405,0.243 3.723,0.577 z m -54.54,7.214"
   id="path931" />
</svg>
