<?xml version="1.0" encoding="UTF-8" standalone="no"?>
<svg
   xmlns:dc="http://purl.org/dc/elements/1.1/"
   xmlns:cc="http://creativecommons.org/ns#"
   xmlns:rdf="http://www.w3.org/1999/02/22-rdf-syntax-ns#"
   xmlns:svg="http://www.w3.org/2000/svg"
   xmlns="http://www.w3.org/2000/svg"
   xmlns:sodipodi="http://sodipodi.sourceforge.net/DTD/sodipodi-0.dtd"
   xmlns:inkscape="http://www.inkscape.org/namespaces/inkscape"
   version="1.0"
   id="Layer_1"
   width="162.30913"
   height="168.50456"
   viewBox="0 0 162.30913 168.50455"
   overflow="visible"
   enable-background="new 0 0 436.505 152.503"
   xml:space="preserve"
   sodipodi:docname="django-logo.svg"
   inkscape:version="1.0.1 (3bc2e813f5, 2020-09-07)"><metadata
   id="metadata3632"><rdf:RDF><cc:Work
       rdf:about=""><dc:format>image/svg+xml</dc:format><dc:type
         rdf:resource="http://purl.org/dc/dcmitype/StillImage" /><dc:title></dc:title></cc:Work></rdf:RDF></metadata><defs
   id="defs3630">
	

		
		
		
		
		
		
	</defs><sodipodi:namedview
   pagecolor="#ffffff"
   bordercolor="#666666"
   borderopacity="1"
   objecttolerance="10"
   gridtolerance="10"
   guidetolerance="10"
   inkscape:pageopacity="0"
   inkscape:pageshadow="2"
   inkscape:window-width="1920"
   inkscape:window-height="1060"
   id="namedview3628"
   showgrid="false"
   scale-x="1"
   inkscape:zoom="1.3184424"
   inkscape:cx="501.71072"
   inkscape:cy="82.677326"
   inkscape:window-x="0"
   inkscape:window-y="20"
   inkscape:window-maximized="0"
   inkscape:current-layer="Layer_1"
   inkscape:document-rotation="0"
   inkscape:snap-page="true"
   inkscape:showpageshadow="false"
   fit-margin-top="0"
   fit-margin-left="0"
   fit-margin-right="0"
   fit-margin-bottom="0" />
<rect
   style="opacity:1;fill:#0f5638;fill-opacity:1;stroke:#ffffff;stroke-width:0.606513;stroke-opacity:0"
   id="rect1787"
   width="161.70262"
   height="167.89806"
   x="0.30325651"
   y="0.30325651" /><g
   id="g80"
   transform="translate(21.046671,-1.4028923)"><path
     fill="#092e20"
     d="m 54.915895,12.658677 h 23.872 V 123.15467 c -12.245999,2.325 -21.237,3.255 -31.001999,3.255 -29.143001,-0.001 -44.3340006,-13.175 -44.3340006,-38.442993 0,-24.337 16.1219996,-40.147 41.0780006,-40.147 3.875,0 6.82,0.309 10.385999,1.239 z m 0,55.62 c -2.79,-0.929 -5.115,-1.239 -8.06,-1.239 -12.091,0 -19.067,7.441 -19.067,20.461 0,12.712003 6.666,19.686993 18.912,19.686993 2.634,0 4.805,-0.155 8.215,-0.619 z"
     id="path3611"
     style="fill:#ffffff;fill-opacity:1" /><path
     fill="#092e20"
     d="m 116.76389,49.523677 v 55.337993 c 0,19.067 -1.395,28.212 -5.58,36.118 -3.876,7.597 -8.992,12.401 -19.531994,17.672 l -22.167001,-10.541 c 10.541,-4.96 15.656001,-9.299 18.911,-15.967 3.411001,-6.82 4.497,-14.726 4.497,-35.496993 v -47.123 z m -23.870995,-36.738 h 23.870995 v 24.492 H 92.892895 Z"
     id="path3613"
     style="fill:#ffffff;fill-opacity:1" /></g>
</svg>
