<?xml version="1.0" encoding="UTF-8" standalone="no"?>
<svg
   xmlns:dc="http://purl.org/dc/elements/1.1/"
   xmlns:cc="http://creativecommons.org/ns#"
   xmlns:rdf="http://www.w3.org/1999/02/22-rdf-syntax-ns#"
   xmlns:svg="http://www.w3.org/2000/svg"
   xmlns="http://www.w3.org/2000/svg"
   xmlns:sodipodi="http://sodipodi.sourceforge.net/DTD/sodipodi-0.dtd"
   xmlns:inkscape="http://www.inkscape.org/namespaces/inkscape"
   version="1.0"
   id="Layer_1"
   width="442"
   height="167.50301"
   viewBox="0 0 441.99999 167.503"
   overflow="visible"
   enable-background="new 0 0 436.505 152.503"
   xml:space="preserve"
   sodipodi:docname="django-logo.svg"
   inkscape:version="1.0.1 (3bc2e813f5, 2020-09-07)"><metadata
   id="metadata3632"><rdf:RDF><cc:Work
       rdf:about=""><dc:format>image/svg+xml</dc:format><dc:type
         rdf:resource="http://purl.org/dc/dcmitype/StillImage" /><dc:title></dc:title></cc:Work></rdf:RDF></metadata><defs
   id="defs3630">
	

		
		
		
		
		
		
	</defs><sodipodi:namedview
   pagecolor="#008800"
   bordercolor="#666666"
   borderopacity="1"
   objecttolerance="10"
   gridtolerance="10"
   guidetolerance="10"
   inkscape:pageopacity="0"
   inkscape:pageshadow="2"
   inkscape:window-width="1248"
   inkscape:window-height="1060"
   id="namedview3628"
   showgrid="false"
   scale-x="1"
   inkscape:zoom="1.3184424"
   inkscape:cx="218.05449"
   inkscape:cy="82.176541"
   inkscape:window-x="0"
   inkscape:window-y="20"
   inkscape:window-maximized="0"
   inkscape:current-layer="Layer_1"
   inkscape:document-rotation="0" />
<path
   fill="#092e20"
   d="m 54.41511,12.157892 h 23.872 V 122.65389 c -12.245999,2.325 -21.237,3.255 -31.001999,3.255 -29.143001,-0.001 -44.3340005,-13.175 -44.3340005,-38.442998 0,-24.337 16.1219995,-40.147 41.0780005,-40.147 3.875,0 6.82,0.309 10.385999,1.239 z m 0,55.62 c -2.79,-0.929 -5.115,-1.239 -8.06,-1.239 -12.091,0 -19.067,7.441 -19.067,20.461 0,12.712 6.666,19.686998 18.912,19.686998 2.634,0 4.805,-0.155 8.215,-0.619 z"
   id="path3611"
   style="fill:#ffffff;fill-opacity:1" /><path
   fill="#092e20"
   d="m 116.26311,49.022892 v 55.337998 c 0,19.067 -1.395,28.212 -5.58,36.118 -3.876,7.597 -8.992,12.401 -19.531999,17.672 l -22.167001,-10.541 c 10.541,-4.96 15.656001,-9.299 18.911,-15.967 3.411001,-6.82 4.497,-14.726 4.497,-35.496998 v -47.123 z m -23.871,-36.738 h 23.871 v 24.492 h -23.871 z"
   id="path3613"
   style="fill:#ffffff;fill-opacity:1" /><path
   fill="#092e20"
   d="m 130.68211,54.447892 c 10.542,-4.959 20.617,-7.129 31.623,-7.129 12.246,0 20.306,3.254 23.872,9.61 2.014,3.565 2.634,8.215 2.634,18.137 v 48.516998 c -10.697,1.55 -24.182,2.636 -34.102,2.636 -19.996,0 -28.988,-6.978 -28.988,-22.478 0,-16.741998 11.936,-24.491998 41.234,-26.972998 v -5.27 c 0,-4.34 -2.17,-5.889 -8.216,-5.889 -8.835,0 -18.756,2.48 -28.058,7.286 v -18.447 z m 37.358,37.978 c -15.812,1.55 -20.927,4.031 -20.927,10.230998 0,4.65 2.946,6.82 9.456,6.82 3.566,0 6.82,-0.309 11.471,-1.084 z"
   id="path3615"
   style="fill:#ffffff;fill-opacity:1" /><path
   fill="#092e20"
   d="m 200.43811,52.742892 c 14.105,-3.72 25.731,-5.424 37.512,-5.424 12.246,0 21.082,2.789 26.354,8.215 4.96,5.114 6.509,10.694 6.509,22.632 v 46.811998 h -23.872 V 79.095892 c 0,-9.145 -3.1,-12.557 -11.625,-12.557 -3.255,0 -6.2,0.31 -11.007,1.705 v 56.733998 h -23.871 z"
   id="path3617"
   style="fill:#ffffff;fill-opacity:1" /><path
   fill="#092e20"
   d="m 280.09311,137.99989 c 8.372,4.34 16.742,6.354 25.577,6.354 15.655,0 22.321,-6.354 22.321,-21.546 0,-0.155 0,-0.31 0,-0.465 -4.65,2.324 -9.301,3.255 -15.5,3.255 -20.927,0 -34.26,-13.796 -34.26,-35.651998 0,-27.129 19.688,-42.473 54.564,-42.473 10.232,0 19.688,1.084 31.159,3.409 l -8.174,17.219 c -6.356,-1.24 -0.509,-0.166 -5.312,-0.631 v 2.481 l 0.309,10.074 0.154,13.022 c 0.155,3.254 0.155,6.51 0.311,9.764998 0,2.945 0,4.341 0,6.511 0,20.462 -1.705,30.072 -6.82,37.977 -7.441,11.627 -20.307,17.362 -38.598,17.362 -9.301,0 -17.36,-1.395 -25.732,-4.651 v -22.011 z m 47.434,-71.305998 c -0.31,0 -0.619,0 -0.774,0 h -1.706 c -4.649,-0.155 -10.074,1.084 -13.796,3.409 -5.734,3.256 -8.681,9.147 -8.681,17.517 0,11.937 5.892,18.756998 16.432,18.756998 3.255,0 5.891,-0.621 8.99,-1.55 v -1.706 -6.508998 c 0,-2.79 -0.154,-5.892 -0.154,-9.146 l -0.154,-11.005 -0.156,-7.906 v -1.861 z"
   id="path3619"
   style="fill:#ffffff;fill-opacity:1" /><path
   fill="#092e20"
   d="m 401.01311,47.007892 c 23.871,0 38.443,15.037 38.443,39.373 0,24.957998 -15.19,40.613998 -39.373,40.613998 -23.873,0 -38.599,-15.037 -38.599,-39.217998 0.001,-25.114 15.193,-40.769 39.529,-40.769 z m -0.467,60.763998 c 9.147,0 14.573,-7.596 14.573,-20.771998 0,-13.02 -5.271,-20.771 -14.415,-20.771 -9.457,0 -14.884,7.597 -14.884,20.771 10e-4,13.176998 5.427,20.771998 14.726,20.771998 z"
   id="path3621"
   style="fill:#ffffff;fill-opacity:1" />
</svg>
