<?xml version="1.0" encoding="UTF-8" standalone="no"?>
<svg
   xmlns:dc="http://purl.org/dc/elements/1.1/"
   xmlns:cc="http://creativecommons.org/ns#"
   xmlns:rdf="http://www.w3.org/1999/02/22-rdf-syntax-ns#"
   xmlns:svg="http://www.w3.org/2000/svg"
   xmlns="http://www.w3.org/2000/svg"
   xmlns:sodipodi="http://sodipodi.sourceforge.net/DTD/sodipodi-0.dtd"
   xmlns:inkscape="http://www.inkscape.org/namespaces/inkscape"
   width="555mm"
   height="125mm"
   viewBox="0 0 555 125"
   version="1.1"
   id="svg2122"
   inkscape:version="1.0.1 (3bc2e813f5, 2020-09-07)"
   sodipodi:docname="postgresql-logo.svg">
  <defs
     id="defs2116" />
  <sodipodi:namedview
     id="base"
     pagecolor="#ffffff"
     bordercolor="#666666"
     borderopacity="1.0"
     inkscape:pageopacity="1"
     inkscape:pageshadow="2"
     inkscape:zoom="0.35"
     inkscape:cx="1082.5849"
     inkscape:cy="560"
     inkscape:document-units="mm"
     inkscape:current-layer="layer1"
     inkscape:document-rotation="0"
     showgrid="false"
     inkscape:showpageshadow="false"
     inkscape:window-width="1920"
     inkscape:window-height="1060"
     inkscape:window-x="0"
     inkscape:window-y="20"
     inkscape:window-maximized="0"
     inkscape:snap-page="false" />
  <metadata
     id="metadata2119">
    <rdf:RDF>
      <cc:Work
         rdf:about="">
        <dc:format>image/svg+xml</dc:format>
        <dc:type
           rdf:resource="http://purl.org/dc/dcmitype/StillImage" />
        <dc:title></dc:title>
      </cc:Work>
    </rdf:RDF>
  </metadata>
  <g
     inkscape:label="Layer 1"
     inkscape:groupmode="layer"
     id="layer1">
    <g
       id="orginal"
       style="clip-rule:nonzero;fill-rule:nonzero;stroke:#000000;stroke-miterlimit:4"
       transform="matrix(0.2530249,0,0,0.2530249,0,12.187331)">
	</g>
    <g
       aria-label="PostgreSQL"
       id="text2688"
       style="font-size:63.5px;line-height:1.25;font-family:sans-serif;-inkscape-font-specification:sans-serif;word-spacing:0px;fill:#336791;fill-opacity:1;stroke-width:0.264583"
       transform="matrix(1.1706217,0,0,1.1706217,-12.822967,-16.686415)">
      <path
         d="m 160.50758,51.413185 q 0,7.100342 -4.65088,10.883057 -4.65088,3.782715 -13.2395,3.782715 h -4.7129 v 16.960205 h -7.4104 V 37.708595 h 13.05347 q 8.49561,0 12.7124,3.472657 4.24781,3.472656 4.24781,10.231933 z m -22.60328,8.433594 h 3.93775 q 5.70508,0 8.37158,-1.984375 2.6665,-1.984375 2.6665,-6.201172 0,-3.906738 -2.38745,-5.829102 -2.38745,-1.922363 -7.4414,-1.922363 h -5.14698 z"
         style="font-style:normal;font-variant:normal;font-weight:600;font-stretch:normal;font-size:63.5px;font-family:'Open Sans';-inkscape-font-specification:'Open Sans Semi-Bold';fill:#336791;fill-opacity:1;stroke-width:0.264583"
         id="path1046" />
      <path
         d="m 199.20289,65.83091 q 0,8.402588 -4.30982,13.115478 -4.30981,4.712891 -11.99926,4.712891 -4.80591,0 -8.49561,-2.17041 -3.6897,-2.17041 -5.67407,-6.232178 -1.98438,-4.061768 -1.98438,-9.425781 0,-8.340576 4.27881,-13.022461 4.27881,-4.681885 12.06128,-4.681885 7.44141,0 11.78223,4.805908 4.34082,4.774903 4.34082,12.898438 z m -24.95972,0 q 0,11.875244 8.77466,11.875244 8.68164,0 8.68164,-11.875244 0,-11.751221 -8.74365,-11.751221 -4.58887,0 -6.66626,3.038574 -2.04639,3.038574 -2.04639,8.712647 z"
         style="font-style:normal;font-variant:normal;font-weight:600;font-stretch:normal;font-size:63.5px;font-family:'Open Sans';-inkscape-font-specification:'Open Sans Semi-Bold';fill:#336791;fill-opacity:1;stroke-width:0.264583"
         id="path1048" />
      <path
         d="m 230.61182,73.272316 q 0,5.022949 -3.65869,7.720459 -3.65869,2.666504 -10.47998,2.666504 -6.85229,0 -11.00708,-2.077393 v -6.294189 q 6.04614,2.790527 11.25513,2.790527 6.72827,0 6.72827,-4.061767 0,-1.302246 -0.74414,-2.170411 -0.74414,-0.868164 -2.44946,-1.798339 -1.70533,-0.930176 -4.7439,-2.108399 -5.92212,-2.294433 -8.03052,-4.588867 -2.07739,-2.294434 -2.07739,-5.953125 0,-4.402832 3.53467,-6.821289 3.56567,-2.449463 9.67383,-2.449463 6.04614,0 11.44116,2.449463 l -2.35645,5.488037 q -5.55005,-2.294434 -9.33276,-2.294434 -5.76709,0 -5.76709,3.286622 0,1.612304 1.48828,2.728515 1.51929,1.116211 6.57324,3.06958 4.24781,1.643311 6.17017,3.007569 1.92236,1.364257 2.85254,3.162597 0.93017,1.767334 0.93017,4.247803 z"
         style="font-style:normal;font-variant:normal;font-weight:600;font-stretch:normal;font-size:63.5px;font-family:'Open Sans';-inkscape-font-specification:'Open Sans Semi-Bold';fill:#336791;fill-opacity:1;stroke-width:0.264583"
         id="path1050" />
      <path
         d="m 251.26173,77.768166 q 2.6665,0 5.333,-0.837159 v 5.488037 q -1.20922,0.5271 -3.13159,0.868165 -1.89136,0.37207 -3.93774,0.37207 -10.35596,0 -10.35596,-10.914063 V 54.265724 h -4.68188 v -3.224609 l 5.02295,-2.666504 2.48046,-7.255371 h 4.49585 v 7.627441 h 9.76685 v 5.519043 h -9.76685 v 18.355469 q 0,2.635498 1.30225,3.906738 1.33325,1.240235 3.47266,1.240235 z"
         style="font-style:normal;font-variant:normal;font-weight:600;font-stretch:normal;font-size:63.5px;font-family:'Open Sans';-inkscape-font-specification:'Open Sans Semi-Bold';fill:#336791;fill-opacity:1;stroke-width:0.264583"
         id="path1052" />
      <path
         d="m 292.4065,48.746681 v 3.999756 l -5.86011,1.085205 q 0.80616,1.085205 1.33326,2.666504 0.5271,1.581299 0.5271,3.348633 0,5.302002 -3.6587,8.340576 -3.65869,3.038574 -10.0769,3.038574 -1.64331,0 -2.97656,-0.248047 -2.35645,1.457276 -2.35645,3.410645 0,1.178223 1.08521,1.767334 1.11621,0.589111 4.06177,0.589111 h 5.98413 q 5.67407,0 8.61962,2.418457 2.94556,2.418457 2.94556,6.976319 0,5.829101 -4.80591,8.991699 -4.8059,3.162597 -13.89062,3.162597 -7.00733,0 -10.69702,-2.480468 -3.6897,-2.480469 -3.6897,-7.069336 0,-3.162598 1.98437,-5.333008 2.01539,-2.139404 5.61207,-2.976563 -1.45728,-0.620117 -2.41846,-1.984375 -0.93018,-1.395263 -0.93018,-2.91455 0,-1.922364 1.08521,-3.255616 1.0852,-1.333251 3.22461,-2.635498 -2.66651,-1.147216 -4.34082,-3.720703 -1.64331,-2.604492 -1.64331,-6.077148 0,-5.581055 3.50366,-8.650635 3.53467,-3.06958 10.0459,-3.06958 1.45727,0 3.03857,0.217041 1.61231,0.186035 2.41846,0.403076 z m -26.94409,39.625488 q 0,2.356446 2.1084,3.627686 2.1394,1.27124 5.98413,1.27124 5.95312,0 8.86768,-1.705322 2.91455,-1.705322 2.91455,-4.526855 0,-2.232422 -1.61231,-3.193604 -1.5813,-0.930176 -5.92212,-0.930176 h -5.51904 q -3.13159,0 -4.99194,1.457276 -1.82935,1.488281 -1.82935,3.999755 z m 3.13159,-28.52539 q 0,3.224609 1.64331,4.960937 1.67432,1.736328 4.7749,1.736328 6.3252,0 6.3252,-6.759277 0,-3.348633 -1.5813,-5.146973 -1.55029,-1.829345 -4.7439,-1.829345 -3.16259,0 -4.8059,1.79834 -1.61231,1.798339 -1.61231,5.23999 z"
         style="font-style:normal;font-variant:normal;font-weight:600;font-stretch:normal;font-size:63.5px;font-family:'Open Sans';-inkscape-font-specification:'Open Sans Semi-Bold';fill:#336791;fill-opacity:1;stroke-width:0.264583"
         id="path1054" />
      <path
         d="m 316.15699,48.126564 q 2.20142,0 3.62769,0.310059 l -0.71314,6.790283 q -1.55029,-0.37207 -3.22461,-0.37207 -4.37182,0 -7.10034,2.852539 -2.69751,2.852539 -2.69751,7.4104 V 83.039162 H 298.7627 V 48.746681 h 5.70508 l 0.96118,6.046143 h 0.37207 q 1.70533,-3.06958 4.43384,-4.86792 2.75952,-1.79834 5.92212,-1.79834 z"
         style="font-style:normal;font-variant:normal;font-weight:600;font-stretch:normal;font-size:63.5px;font-family:'Open Sans';-inkscape-font-specification:'Open Sans Semi-Bold';fill:#336791;fill-opacity:1;stroke-width:0.264583"
         id="path1056" />
      <path
         d="m 341.11671,83.659279 q -7.99951,0 -12.52637,-4.650879 -4.49585,-4.681885 -4.49585,-12.867432 0,-8.402588 4.18579,-13.208496 4.18579,-4.805908 11.50317,-4.805908 6.79029,0 10.72803,4.123779 3.93775,4.12378 3.93775,11.348145 v 3.937744 h -22.85132 q 0.15503,4.991943 2.69751,7.689453 2.54248,2.666504 7.16235,2.666504 3.03858,0 5.64307,-0.558105 2.6355,-0.589112 5.64306,-1.922364 v 5.922119 q -2.6665,1.271241 -5.39502,1.79834 -2.72851,0.5271 -6.23217,0.5271 z m -1.33326,-30.013672 q -3.47265,0 -5.58105,2.201416 -2.07739,2.201416 -2.48047,6.418213 h 15.56494 q -0.062,-4.247803 -2.04638,-6.418213 -1.98438,-2.201416 -5.45704,-2.201416 z"
         style="font-style:normal;font-variant:normal;font-weight:600;font-stretch:normal;font-size:63.5px;font-family:'Open Sans';-inkscape-font-specification:'Open Sans Semi-Bold';fill:#336791;fill-opacity:1;stroke-width:0.264583"
         id="path1058" />
      <path
         d="m 389.64088,70.729836 q 0,6.046142 -4.37183,9.487792 -4.37183,3.441651 -12.06128,3.441651 -7.68945,0 -12.58838,-2.387451 v -7.007325 q 3.10059,1.457276 6.57324,2.294434 3.50367,0.837158 6.51124,0.837158 4.40283,0 6.48022,-1.674316 2.1084,-1.674317 2.1084,-4.49585 0,-2.54248 -1.92237,-4.309814 -1.92236,-1.767334 -7.9375,-4.185791 -6.20117,-2.511475 -8.74365,-5.736084 -2.54248,-3.22461 -2.54248,-7.751465 0,-5.674072 4.03076,-8.929688 4.03077,-3.255615 10.82105,-3.255615 6.51123,0 12.96045,2.852539 l -2.35645,6.046143 q -6.04614,-2.542481 -10.79004,-2.542481 -3.59668,0 -5.45703,1.581299 -1.86035,1.550293 -1.86035,4.12378 0,1.767334 0.74414,3.038574 0.74414,1.240234 2.44946,2.356445 1.70533,1.116211 6.13916,2.945557 4.99195,2.077392 7.31739,3.875732 2.32544,1.79834 3.41064,4.061768 1.08521,2.263427 1.08521,5.333008 z"
         style="font-style:normal;font-variant:normal;font-weight:600;font-stretch:normal;font-size:63.5px;font-family:'Open Sans';-inkscape-font-specification:'Open Sans Semi-Bold';fill:#336791;fill-opacity:1;stroke-width:0.264583"
         id="path1060" />
      <path
         d="m 438.66114,60.311867 q 0,8.247558 -3.1626,13.890625 -3.13159,5.643066 -9.14673,7.9375 l 10.85206,11.689209 h -9.98389 l -8.55762,-10.169922 h -1.20923 q -10.26294,0 -15.78198,-6.077149 -5.48804,-6.108154 -5.48804,-17.332275 0,-11.224121 5.51905,-17.239258 5.55004,-6.015136 15.81298,-6.015136 10.10791,0 15.62696,6.108154 5.51904,6.108154 5.51904,17.208252 z m -34.60254,0 q 0,8.371582 3.37964,12.712402 3.37964,4.309815 10.01489,4.309815 6.60425,0 9.95288,-4.278809 3.37964,-4.278809 3.37964,-12.743408 0,-8.340576 -3.34863,-12.650391 -3.31763,-4.309814 -9.92188,-4.309814 -6.66626,0 -10.0769,4.309814 -3.37964,4.309815 -3.37964,12.650391 z"
         style="font-style:normal;font-variant:normal;font-weight:600;font-stretch:normal;font-size:63.5px;font-family:'Open Sans';-inkscape-font-specification:'Open Sans Semi-Bold';fill:#336791;fill-opacity:1;stroke-width:0.264583"
         id="path1062" />
      <path
         d="M 448.39698,83.039162 V 37.708595 h 7.4104 v 38.974366 h 19.19263 v 6.356201 z"
         style="font-style:normal;font-variant:normal;font-weight:600;font-stretch:normal;font-size:63.5px;font-family:'Open Sans';-inkscape-font-specification:'Open Sans Semi-Bold';fill:#336791;fill-opacity:1;stroke-width:0.264583"
         id="path1064" />
    </g>
    <g
       id="Layer_x0020_3"
       style="clip-rule:nonzero;fill:none;fill-rule:nonzero;stroke:#ffffff;stroke-width:12.4651;stroke-linecap:round;stroke-linejoin:round;stroke-miterlimit:4"
       transform="matrix(0.2530249,0,0,0.2530249,5.4999962,6.1873308)">
<path
   style="fill:#000000;stroke:#000000;stroke-width:37.3953;stroke-linecap:butt;stroke-linejoin:miter"
   d="m 323.205,324.227 c 2.833,-23.601 1.984,-27.062 19.563,-23.239 l 4.463,0.392 c 13.517,0.615 31.199,-2.174 41.587,-7 22.362,-10.376 35.622,-27.7 13.572,-23.148 -50.297,10.376 -53.755,-6.655 -53.755,-6.655 C 401.746,185.774 423.948,85.741 404.784,61.255 352.514,-5.534 262.036,26.049 260.522,26.869 l -0.482,0.089 c -9.938,-2.062 -21.06,-3.294 -33.554,-3.496 -22.761,-0.374 -40.032,5.967 -53.133,15.904 0,0 -161.408,-66.498 -153.899,83.628 1.597,31.936 45.777,241.655 98.47,178.31 19.259,-23.163 37.871,-42.748 37.871,-42.748 9.242,6.14 20.307,9.272 31.912,8.147 l 0.897,-0.765 c -0.281,2.876 -0.157,5.689 0.359,9.019 -13.572,15.167 -9.584,17.83 -36.723,23.416 -27.457,5.659 -11.326,15.734 -0.797,18.367 12.768,3.193 42.305,7.716 62.268,-20.224 l -0.795,3.188 c 5.325,4.26 4.965,30.619 5.72,49.452 0.756,18.834 2.017,36.409 5.856,46.771 3.839,10.36 8.369,37.05 44.036,29.406 29.809,-6.388 52.6,-15.582 54.677,-101.107"
   id="path929" />

<path
   style="fill:#336791;stroke:none"
   d="m 402.395,271.23 c -50.302,10.376 -53.76,-6.655 -53.76,-6.655 53.111,-78.808 75.313,-178.843 56.153,-203.326 -52.27,-66.785 -142.752,-35.2 -144.262,-34.38 l -0.486,0.087 c -9.938,-2.063 -21.06,-3.292 -33.56,-3.496 -22.761,-0.373 -40.026,5.967 -53.127,15.902 0,0 -161.411,-66.495 -153.904,83.63 1.597,31.938 45.776,241.657 98.471,178.312 19.26,-23.163 37.869,-42.748 37.869,-42.748 9.243,6.14 20.308,9.272 31.908,8.147 l 0.901,-0.765 c -0.28,2.876 -0.152,5.689 0.361,9.019 -13.575,15.167 -9.586,17.83 -36.723,23.416 -27.459,5.659 -11.328,15.734 -0.796,18.367 12.768,3.193 42.307,7.716 62.266,-20.224 l -0.796,3.188 c 5.319,4.26 9.054,27.711 8.428,48.969 -0.626,21.259 -1.044,35.854 3.147,47.254 4.191,11.4 8.368,37.05 44.042,29.406 29.809,-6.388 45.256,-22.942 47.405,-50.555 1.525,-19.631 4.976,-16.729 5.194,-34.28 l 2.768,-8.309 c 3.192,-26.611 0.507,-35.196 18.872,-31.203 l 4.463,0.392 c 13.517,0.615 31.208,-2.174 41.591,-7 22.358,-10.376 35.618,-27.7 13.573,-23.148 z"
   id="path931" />

<path
   d="m 215.866,286.484 c -1.385,49.516 0.348,99.377 5.193,111.495 4.848,12.118 15.223,35.688 50.9,28.045 29.806,-6.39 40.651,-18.756 45.357,-46.051 3.466,-20.082 10.148,-75.854 11.005,-87.281"
   id="path933" />

<path
   d="m 173.104,38.256 c 0,0 -161.521,-66.016 -154.012,84.109 1.597,31.938 45.779,241.664 98.473,178.316 19.256,-23.166 36.671,-41.335 36.671,-41.335"
   id="path935" />

<path
   d="m 260.349,26.207 c -5.591,1.753 89.848,-34.889 144.087,34.417 19.159,24.484 -3.043,124.519 -56.153,203.329"
   id="path937" />

<path
   style="stroke-linejoin:bevel"
   d="m 348.282,263.953 c 0,0 3.461,17.036 53.764,6.653 22.04,-4.552 8.776,12.774 -13.577,23.155 -18.345,8.514 -59.474,10.696 -60.146,-1.069 -1.729,-30.355 21.647,-21.133 19.96,-28.739 -1.525,-6.85 -11.979,-13.573 -18.894,-30.338 -6.037,-14.633 -82.796,-126.849 21.287,-110.183 3.813,-0.789 -27.146,-99.002 -124.553,-100.599 -97.385,-1.597 -94.19,119.762 -94.19,119.762"
   id="path939" />

<path
   d="m 188.604,274.334 c -13.577,15.166 -9.584,17.829 -36.723,23.417 -27.459,5.66 -11.326,15.733 -0.797,18.365 12.768,3.195 42.307,7.718 62.266,-20.229 6.078,-8.509 -0.036,-22.086 -8.385,-25.547 -4.034,-1.671 -9.428,-3.765 -16.361,3.994 z"
   id="path941" />

<path
   d="m 187.715,274.069 c -1.368,-8.917 2.93,-19.528 7.536,-31.942 6.922,-18.626 22.893,-37.255 10.117,-96.339 -9.523,-44.029 -73.396,-9.163 -73.436,-3.193 -0.039,5.968 2.889,30.26 -1.067,58.548 -5.162,36.913 23.488,68.132 56.479,64.938"
   id="path943" />

<path
   style="fill:#ffffff;stroke-width:4.155;stroke-linecap:butt;stroke-linejoin:miter"
   d="m 172.517,141.7 c -0.288,2.039 3.733,7.48 8.976,8.207 5.234,0.73 9.714,-3.522 9.998,-5.559 0.284,-2.039 -3.732,-4.285 -8.977,-5.015 -5.237,-0.731 -9.719,0.333 -9.996,2.367 z"
   id="path945" />

<path
   style="fill:#ffffff;stroke-width:2.0775;stroke-linecap:butt;stroke-linejoin:miter"
   d="m 331.941,137.543 c 0.284,2.039 -3.732,7.48 -8.976,8.207 -5.238,0.73 -9.718,-3.522 -10.005,-5.559 -0.277,-2.039 3.74,-4.285 8.979,-5.015 5.239,-0.73 9.718,0.333 10.002,2.368 z"
   id="path947" />

<path
   d="m 350.676,123.432 c 0.863,15.994 -3.445,26.888 -3.988,43.914 -0.804,24.748 11.799,53.074 -7.191,81.435"
   id="path949" />

<path
   style="stroke-width:3"
   d="M 0,60.232"
   id="path951" />

</g>
  </g>
</svg>
