<?xml version="1.0" encoding="UTF-8" standalone="no"?>
<svg
   xmlns:dc="http://purl.org/dc/elements/1.1/"
   xmlns:cc="http://creativecommons.org/ns#"
   xmlns:rdf="http://www.w3.org/1999/02/22-rdf-syntax-ns#"
   xmlns:svg="http://www.w3.org/2000/svg"
   xmlns="http://www.w3.org/2000/svg"
   xmlns:sodipodi="http://sodipodi.sourceforge.net/DTD/sodipodi-0.dtd"
   xmlns:inkscape="http://www.inkscape.org/namespaces/inkscape"
   version="1.1"
   viewBox="0 0 653.99997 242.69"
   id="svg1544"
   sodipodi:docname="vuejs-logo.svg"
   width="654"
   height="242.69"
   inkscape:version="1.0.1 (3bc2e813f5, 2020-09-07)">
  <metadata
     id="metadata1550">
    <rdf:RDF>
      <cc:Work
         rdf:about="">
        <dc:format>image/svg+xml</dc:format>
        <dc:type
           rdf:resource="http://purl.org/dc/dcmitype/StillImage" />
        <dc:title></dc:title>
      </cc:Work>
    </rdf:RDF>
  </metadata>
  <defs
     id="defs1548" />
  <sodipodi:namedview
     pagecolor="#ffffff"
     bordercolor="#666666"
     borderopacity="1"
     objecttolerance="10"
     gridtolerance="10"
     guidetolerance="10"
     inkscape:pageopacity="0"
     inkscape:pageshadow="2"
     inkscape:window-width="1920"
     inkscape:window-height="1060"
     id="namedview1546"
     showgrid="false"
     inkscape:pagecheckerboard="true"
     inkscape:showpageshadow="false"
     inkscape:zoom="1.1689042"
     inkscape:cx="313.84941"
     inkscape:cy="117.47359"
     inkscape:window-x="0"
     inkscape:window-y="20"
     inkscape:window-maximized="0"
     inkscape:current-layer="svg1544"
     inkscape:document-rotation="0"
     inkscape:snap-page="true" />
  <g
     transform="matrix(1.1661743,0,0,-1.1661743,145.27097,22.208527)"
     id="g1536">
    <path
       d="M 0,0 -22.669,-39.264 -45.338,0 h -75.491 L -22.669,-170.02 75.491,0 Z"
       fill="#41b883"
       id="path1534" />
  </g>
  <path
     d="M 145.27097,22.208527 118.83496,67.997195 92.398951,22.208527 H 50.151957 l 68.683003,118.961443 68.683,-118.961443 z"
     fill="#34495e"
     id="path1538"
     style="stroke-width:1.16618" />
  <g
     aria-label="Vue.js"
     id="text1558"
     style="font-size:160px;line-height:1.25;font-family:'Neutra Text';-inkscape-font-specification:'Neutra Text';word-spacing:0px;stroke-width:1"
     transform="translate(3.4545157,26.461877)">
    <g
       id="g981">
      <g
         id="g927"
         style="opacity:1"
         transform="translate(23.529291,2.6910407)">
        <path
           style="color:#000000;font-style:normal;font-variant:normal;font-weight:500;font-stretch:normal;font-size:160px;line-height:1.25;font-family:Dosis;-inkscape-font-specification:'Dosis Medium';font-variant-ligatures:normal;font-variant-position:normal;font-variant-caps:normal;font-variant-numeric:normal;font-variant-alternates:normal;font-variant-east-asian:normal;font-feature-settings:normal;font-variation-settings:normal;text-indent:0;text-align:start;text-decoration:none;text-decoration-line:none;text-decoration-style:solid;text-decoration-color:#000000;letter-spacing:normal;word-spacing:0px;text-transform:none;writing-mode:lr-tb;direction:ltr;text-orientation:mixed;dominant-baseline:auto;baseline-shift:baseline;text-anchor:start;white-space:normal;shape-padding:0;shape-margin:0;inline-size:0;clip-rule:nonzero;display:inline;overflow:visible;visibility:visible;isolation:auto;mix-blend-mode:normal;color-interpolation:sRGB;color-interpolation-filters:linearRGB;solid-color:#000000;solid-opacity:1;vector-effect:none;fill:#000000;fill-opacity:1;fill-rule:nonzero;stroke:none;stroke-width:1;stroke-linecap:butt;stroke-linejoin:miter;stroke-miterlimit:4;stroke-dasharray:none;stroke-dashoffset:0;stroke-opacity:1;color-rendering:auto;image-rendering:auto;shape-rendering:auto;text-rendering:auto;enable-background:accumulate;stop-color:#000000;stop-opacity:1"
           d="m 310.33008,161.19537 c -1.81333,0 -3.52,-0.37333 -5.12,-1.12 -1.6,-0.85333 -2.66667,-2.02667 -3.2,-3.52 l -32.8,-106.400003 c -0.10667,-0.426667 -0.16,-0.853333 -0.16,-1.28 0,-1.066667 0.42667,-2.026667 1.28,-2.88 0.85333,-0.853333 1.92,-1.493333 3.2,-1.92 1.28,-0.533333 2.50667,-0.8 3.68,-0.8 1.17333,0 2.18667,0.266667 3.04,0.8 0.96,0.426667 1.6,1.173333 1.92,2.24 l 28.16,95.040003 28,-95.040003 c 0.32,-1.066667 0.90667,-1.813333 1.76,-2.24 0.85333,-0.533333 1.86667,-0.8 3.04,-0.8 1.28,0 2.56,0.266667 3.84,0.8 1.28,0.533333 2.34667,1.226667 3.2,2.08 0.85333,0.746667 1.28,1.706667 1.28,2.88 0,0.106667 -0.0533,0.266667 -0.16,0.48 v 0.64 l -32.64,106.400003 c -0.42667,1.49333 -1.44,2.66667 -3.04,3.52 -1.6,0.74667 -3.36,1.12 -5.28,1.12 z"
           id="path929" />
        <path
           style="color:#000000;font-style:normal;font-variant:normal;font-weight:500;font-stretch:normal;font-size:160px;line-height:1.25;font-family:Dosis;-inkscape-font-specification:'Dosis Medium';font-variant-ligatures:normal;font-variant-position:normal;font-variant-caps:normal;font-variant-numeric:normal;font-variant-alternates:normal;font-variant-east-asian:normal;font-feature-settings:normal;font-variation-settings:normal;text-indent:0;text-align:start;text-decoration:none;text-decoration-line:none;text-decoration-style:solid;text-decoration-color:#000000;letter-spacing:normal;word-spacing:0px;text-transform:none;writing-mode:lr-tb;direction:ltr;text-orientation:mixed;dominant-baseline:auto;baseline-shift:baseline;text-anchor:start;white-space:normal;shape-padding:0;shape-margin:0;inline-size:0;clip-rule:nonzero;display:inline;overflow:visible;visibility:visible;isolation:auto;mix-blend-mode:normal;color-interpolation:sRGB;color-interpolation-filters:linearRGB;solid-color:#000000;solid-opacity:1;vector-effect:none;fill-opacity:1;fill-rule:nonzero;stroke:none;stroke-width:1;stroke-linecap:butt;stroke-linejoin:miter;stroke-miterlimit:4;stroke-dasharray:none;stroke-dashoffset:0;stroke-opacity:1;color-rendering:auto;image-rendering:auto;shape-rendering:auto;text-rendering:auto;enable-background:accumulate;stop-color:#000000;stop-opacity:1"
           d="m 277.21094,42.775391 c -1.24221,0 -2.52923,0.285799 -3.85156,0.833984 -1.33704,0.447808 -2.4738,1.124185 -3.38282,2.033203 -0.92699,0.92699 -1.42578,2.032422 -1.42578,3.232422 0,0.468333 0.0577,0.937632 0.17383,1.402344 l 0.004,0.01172 32.80664,106.423826 0.004,0.01 c 0.57646,1.61407 1.74904,2.8935 3.43555,3.79296 l 0.0117,0.008 0.0117,0.006 c 1.66559,0.77727 3.45007,1.16601 5.33203,1.16601 1.98481,0 3.82273,-0.38694 5.49219,-1.16601 l 0.0117,-0.006 0.0117,-0.008 c 1.69058,-0.90164 2.82005,-2.19437 3.28516,-3.82226 L 351.79102,50.230469 v -0.671875 c 0.076,-0.166581 0.1582,-0.319987 0.1582,-0.523438 0,-1.287573 -0.49645,-2.409396 -1.4375,-3.240234 -0.90326,-0.900482 -2.0233,-1.629013 -3.34961,-2.181641 -1.33462,-0.556091 -2.68181,-0.83789 -4.03125,-0.83789 -1.24096,0 -2.34835,0.290877 -3.28516,0.871093 -0.96653,0.492583 -1.64728,1.369205 -1.99414,2.525391 v 0.002 L 310.32812,139.5918 282.64844,46.171875 c -0.34977,-1.165887 -1.09959,-2.042085 -2.16016,-2.527344 -0.93573,-0.578087 -2.03864,-0.86914 -3.27734,-0.86914 z m 0,1 c 1.09757,0 2.00744,0.245864 2.77344,0.724609 l 0.0312,0.01758 0.0313,0.01563 c 0.83753,0.372236 1.3588,0.973351 1.64453,1.925781 l 28.64062,96.660159 28.47852,-96.662112 c 0.29022,-0.965419 0.77799,-1.570639 1.5039,-1.933593 l 0.0195,-0.01172 0.0215,-0.01172 c 0.76599,-0.478745 1.67781,-0.724609 2.77539,-0.724609 1.21055,0 2.4211,0.251143 3.64648,0.761718 1.22903,0.512093 2.23729,1.170883 3.03907,1.972657 l 0.0117,0.01172 0.0137,0.0098 c 0.75565,0.661197 1.10742,1.451785 1.10742,2.503906 0,-0.06 -0.0137,0.07234 -0.10547,0.25586 l -0.0527,0.105468 v 0.683594 L 318.16994,156.4141 v 0.004 c -0.38716,1.35508 -1.28317,2.40481 -2.78515,3.20898 -1.52712,0.71028 -3.20469,1.06836 -5.05469,1.06836 -1.73977,0 -3.36393,-0.35636 -4.89453,-1.06836 -1.50497,-0.8056 -2.46377,-1.86941 -2.95313,-3.23633 -5e-4,-0.001 -10e-4,-0.003 -0.002,-0.004 L 269.69531,50.033203 C 269.59816,49.644581 269.55078,49.26 269.55078,48.875 c 0,-0.933333 0.35314,-1.745714 1.13281,-2.525391 0.79441,-0.794407 1.78716,-1.395196 3.00391,-1.800781 l 0.0176,-0.0059 0.0176,-0.0059 c 1.22993,-0.512471 2.3907,-0.761718 3.48828,-0.761718 z"
           id="path931" />
      </g>
      <g
         id="g933"
         style="opacity:1"
         transform="translate(23.529291,2.6910407)">
        <path
           style="color:#000000;font-style:normal;font-variant:normal;font-weight:500;font-stretch:normal;font-size:160px;line-height:1.25;font-family:Dosis;-inkscape-font-specification:'Dosis Medium';font-variant-ligatures:normal;font-variant-position:normal;font-variant-caps:normal;font-variant-numeric:normal;font-variant-alternates:normal;font-variant-east-asian:normal;font-feature-settings:normal;font-variation-settings:normal;text-indent:0;text-align:start;text-decoration:none;text-decoration-line:none;text-decoration-style:solid;text-decoration-color:#000000;letter-spacing:normal;word-spacing:0px;text-transform:none;writing-mode:lr-tb;direction:ltr;text-orientation:mixed;dominant-baseline:auto;baseline-shift:baseline;text-anchor:start;white-space:normal;shape-padding:0;shape-margin:0;inline-size:0;clip-rule:nonzero;display:inline;overflow:visible;visibility:visible;isolation:auto;mix-blend-mode:normal;color-interpolation:sRGB;color-interpolation-filters:linearRGB;solid-color:#000000;solid-opacity:1;vector-effect:none;fill:#000000;fill-opacity:1;fill-rule:nonzero;stroke:none;stroke-width:1;stroke-linecap:butt;stroke-linejoin:miter;stroke-miterlimit:4;stroke-dasharray:none;stroke-dashoffset:0;stroke-opacity:1;color-rendering:auto;image-rendering:auto;shape-rendering:auto;text-rendering:auto;enable-background:accumulate;stop-color:#000000;stop-opacity:1"
           d="m 388.4099,161.51537 c -5.86667,0 -11.2,-1.44 -16,-4.32 -4.8,-2.88 -8.64,-6.66667 -11.52,-11.36 -2.88,-4.69333 -4.32,-9.70667 -4.32,-15.04 V 89.195367 c 0,-1.173333 0.64,-2.24 1.92,-3.2 1.38667,-1.066667 2.98667,-1.6 4.8,-1.6 1.81333,0 3.36,0.533333 4.64,1.6 1.28,0.96 1.92,2.026667 1.92,3.2 v 41.600003 c 0,3.09333 0.8,6.08 2.4,8.96 1.70667,2.88 3.94667,5.22667 6.72,7.04 2.77333,1.81333 5.86667,2.72 9.28,2.72 3.41333,0 6.50667,-0.90667 9.28,-2.72 2.77333,-1.81333 4.96,-4.16 6.56,-7.04 1.6,-2.88 2.4,-5.86667 2.4,-8.96 V 89.035367 c 0,-1.28 0.69333,-2.346667 2.08,-3.2 1.38667,-0.96 2.93333,-1.44 4.64,-1.44 2.02667,0 3.62667,0.48 4.8,1.44 1.17333,0.853333 1.76,1.92 1.76,3.2 v 41.760003 c 0,5.44 -1.44,10.50667 -4.32,15.2 -2.77333,4.58667 -6.56,8.32 -11.36,11.2 -4.8,2.88 -10.02667,4.32 -15.68,4.32 z"
           id="path935" />
        <path
           style="color:#000000;font-style:normal;font-variant:normal;font-weight:500;font-stretch:normal;font-size:160px;line-height:1.25;font-family:Dosis;-inkscape-font-specification:'Dosis Medium';font-variant-ligatures:normal;font-variant-position:normal;font-variant-caps:normal;font-variant-numeric:normal;font-variant-alternates:normal;font-variant-east-asian:normal;font-feature-settings:normal;font-variation-settings:normal;text-indent:0;text-align:start;text-decoration:none;text-decoration-line:none;text-decoration-style:solid;text-decoration-color:#000000;letter-spacing:normal;word-spacing:0px;text-transform:none;writing-mode:lr-tb;direction:ltr;text-orientation:mixed;dominant-baseline:auto;baseline-shift:baseline;text-anchor:start;white-space:normal;shape-padding:0;shape-margin:0;inline-size:0;clip-rule:nonzero;display:inline;overflow:visible;visibility:visible;isolation:auto;mix-blend-mode:normal;color-interpolation:sRGB;color-interpolation-filters:linearRGB;solid-color:#000000;solid-opacity:1;vector-effect:none;fill-opacity:1;fill-rule:nonzero;stroke:none;stroke-width:1;stroke-linecap:butt;stroke-linejoin:miter;stroke-miterlimit:4;stroke-dasharray:none;stroke-dashoffset:0;stroke-opacity:1;color-rendering:auto;image-rendering:auto;shape-rendering:auto;text-rendering:auto;enable-background:accumulate;stop-color:#000000;stop-opacity:1"
           d="m 363.28906,83.894531 c -1.91137,0 -3.63336,0.574192 -5.10351,1.705078 -1.35516,1.01794 -2.11524,2.242183 -2.11524,3.595703 v 41.599608 c 0,5.42334 1.46842,10.53744 4.39258,15.30274 2.92092,4.76001 6.82453,8.60839 11.68945,11.52734 4.87707,2.92624 10.30933,4.39062 16.25782,4.39062 5.73824,0 11.06324,-1.46606 15.9375,-4.39062 4.86398,-2.91839 8.71385,-6.71478 11.52929,-11.37109 v 0.004 c 2.92504,-4.76673 4.39258,-9.93465 4.39258,-15.46289 V 89.035156 c 0,-1.427322 -0.6928,-2.66957 -1.95312,-3.591797 -1.28165,-1.044551 -3.00653,-1.548828 -5.10743,-1.548828 -1.79346,0 -3.44482,0.512652 -4.90625,1.519531 -1.4776,0.911477 -2.3125,2.162697 -2.3125,3.621094 v 41.759764 c 0,3.00713 -0.77479,5.90323 -2.33789,8.7168 -1.56207,2.81173 -3.68776,5.09415 -6.39648,6.86523 -2.6947,1.76192 -5.68107,2.63867 -9.00586,2.63867 -3.32479,0 -6.31116,-0.87675 -9.00586,-2.63867 -2.7072,-1.77009 -4.88801,-4.05351 -6.55664,-6.86523 l -0.002,-0.004 c -1.56162,-2.81232 -2.33594,-5.70718 -2.33594,-8.71289 V 89.195312 c 0,-1.351074 -0.75882,-2.572997 -2.10938,-3.589843 -1.36757,-1.136062 -3.04396,-1.710938 -4.95117,-1.710938 z m 0,1 c 1.7153,0 3.12952,0.492047 4.32032,1.484375 l 0.01,0.0078 0.0117,0.0078 c 1.20178,0.901334 1.71875,1.809266 1.71875,2.800781 v 41.599603 c 0,3.17954 0.82598,6.25669 2.46289,9.20313 l 0.004,0.006 0.004,0.006 c 1.74376,2.94259 4.03951,5.34915 6.875,7.20312 2.85197,1.86475 6.05281,2.80273 9.55469,2.80273 3.50187,0 6.70076,-0.93798 9.55273,-2.80273 2.83795,-1.85558 5.08669,-4.26658 6.72461,-7.21484 1.63691,-2.94644 2.46289,-6.02359 2.46289,-9.20313 V 89.035156 c 0,-1.099444 0.55017,-1.978587 1.8418,-2.773437 l 0.0117,-0.0078 0.0117,-0.0078 c 1.30773,-0.905356 2.7406,-1.351563 4.35351,-1.351563 1.94772,0 3.42024,0.457468 4.48438,1.328125 l 0.0117,0.0078 0.01,0.0098 c 1.07716,0.783389 1.55469,1.6677 1.55469,2.794922 v 41.759767 c 0,5.35177 -1.41113,10.31952 -4.24609,14.93946 l -0.002,0.002 c -2.73122,4.51702 -6.45343,8.18964 -11.18945,11.03125 -4.72574,2.83544 -9.85345,4.24804 -15.42187,4.24804 -5.78485,0 -11.01925,-1.41428 -15.74219,-4.24804 -4.73508,-2.84105 -8.51248,-6.56671 -11.35156,-11.19336 -2.83585,-4.62137 -4.2461,-9.53596 -4.2461,-14.7793 V 89.195312 c 0,-0.991515 0.51697,-1.899447 1.71875,-2.800781 l 0.004,-0.002 h 0.002 c 1.30318,-1.002447 2.77885,-1.498047 4.49414,-1.498047 z"
           id="path937" />
      </g>
      <g
         id="g939"
         style="opacity:1"
         transform="translate(23.529291,2.6910407)">
        <path
           style="color:#000000;font-style:normal;font-variant:normal;font-weight:500;font-stretch:normal;font-size:160px;line-height:1.25;font-family:Dosis;-inkscape-font-specification:'Dosis Medium';font-variant-ligatures:normal;font-variant-position:normal;font-variant-caps:normal;font-variant-numeric:normal;font-variant-alternates:normal;font-variant-east-asian:normal;font-feature-settings:normal;font-variation-settings:normal;text-indent:0;text-align:start;text-decoration:none;text-decoration-line:none;text-decoration-style:solid;text-decoration-color:#000000;letter-spacing:normal;word-spacing:0px;text-transform:none;writing-mode:lr-tb;direction:ltr;text-orientation:mixed;dominant-baseline:auto;baseline-shift:baseline;text-anchor:start;white-space:normal;shape-padding:0;shape-margin:0;inline-size:0;clip-rule:nonzero;display:inline;overflow:visible;visibility:visible;isolation:auto;mix-blend-mode:normal;color-interpolation:sRGB;color-interpolation-filters:linearRGB;solid-color:#000000;solid-opacity:1;vector-effect:none;fill:#000000;fill-opacity:1;fill-rule:nonzero;stroke:none;stroke-width:1;stroke-linecap:butt;stroke-linejoin:miter;stroke-miterlimit:4;stroke-dasharray:none;stroke-dashoffset:0;stroke-opacity:1;color-rendering:auto;image-rendering:auto;shape-rendering:auto;text-rendering:auto;enable-background:accumulate;stop-color:#000000;stop-opacity:1"
           d="m 470.80985,161.51537 c -6.93333,0 -13.06667,-1.28 -18.4,-3.84 -5.33333,-2.66667 -9.54667,-6.29333 -12.64,-10.88 -3.09333,-4.69333 -4.64,-10.13333 -4.64,-16.32 v -16.8 c 0,-5.44 1.44,-10.45333 4.32,-15.040003 2.98667,-4.586667 6.88,-8.266667 11.68,-11.04 4.8,-2.773333 10.08,-4.16 15.84,-4.16 5.54667,0 10.61333,1.28 15.2,3.84 4.69333,2.56 8.42667,6.026667 11.2,10.4 2.88,4.373333 4.32,9.440003 4.32,15.200003 0,4.26667 -0.69333,7.36 -2.08,9.28 -1.38667,1.81333 -3.14667,2.93333 -5.28,3.36 -2.13333,0.42667 -4.37333,0.64 -6.72,0.64 h -35.2 v 4.8 c 0,5.97333 2.13333,10.72 6.4,14.24 4.26667,3.41333 9.76,5.12 16.48,5.12 3.94667,0 7.09333,-0.53333 9.44,-1.6 2.34667,-1.06667 4.26667,-2.08 5.76,-3.04 1.49333,-1.06667 2.82667,-1.6 4,-1.6 1.17333,0 2.13333,0.37333 2.88,1.12 0.85333,0.64 1.49333,1.44 1.92,2.4 0.42667,0.96 0.64,1.81333 0.64,2.56 0,1.38667 -1.01333,2.98667 -3.04,4.8 -2.02667,1.70667 -4.96,3.25333 -8.8,4.64 -3.73333,1.28 -8.16,1.92 -13.28,1.92 z m -22.4,-44.32 h 29.6 c 2.88,0 4.74667,-0.32 5.6,-0.96 0.96,-0.74667 1.44,-2.13333 1.44,-4.16 0,-3.2 -0.8,-6.13333 -2.4,-8.8 -1.49333,-2.77334 -3.62667,-5.013336 -6.4,-6.720003 -2.77333,-1.706667 -5.92,-2.56 -9.44,-2.56 -3.30667,0 -6.34667,0.8 -9.12,2.4 -2.77333,1.493333 -5.01333,3.573334 -6.72,6.240003 -1.70667,2.66667 -2.56,5.6 -2.56,8.8 z"
           id="path941" />
        <path
           style="color:#000000;font-style:normal;font-variant:normal;font-weight:500;font-stretch:normal;font-size:160px;line-height:1.25;font-family:Dosis;-inkscape-font-specification:'Dosis Medium';font-variant-ligatures:normal;font-variant-position:normal;font-variant-caps:normal;font-variant-numeric:normal;font-variant-alternates:normal;font-variant-east-asian:normal;font-feature-settings:normal;font-variation-settings:normal;text-indent:0;text-align:start;text-decoration:none;text-decoration-line:none;text-decoration-style:solid;text-decoration-color:#000000;letter-spacing:normal;word-spacing:0px;text-transform:none;writing-mode:lr-tb;direction:ltr;text-orientation:mixed;dominant-baseline:auto;baseline-shift:baseline;text-anchor:start;white-space:normal;shape-padding:0;shape-margin:0;inline-size:0;clip-rule:nonzero;display:inline;overflow:visible;visibility:visible;isolation:auto;mix-blend-mode:normal;color-interpolation:sRGB;color-interpolation-filters:linearRGB;solid-color:#000000;solid-opacity:1;vector-effect:none;fill-opacity:1;fill-rule:nonzero;stroke:none;stroke-width:1;stroke-linecap:butt;stroke-linejoin:miter;stroke-miterlimit:4;stroke-dasharray:none;stroke-dashoffset:0;stroke-opacity:1;color-rendering:auto;image-rendering:auto;shape-rendering:auto;text-rendering:auto;enable-background:accumulate;stop-color:#000000;stop-opacity:1"
           d="m 466.9707,82.935547 c -5.84024,0 -11.21678,1.409888 -16.09179,4.226562 -4.86449,2.810594 -8.8193,6.550481 -11.84766,11.201172 l -0.002,0.002 -0.002,0.0039 c -2.92734,4.662059 -4.39843,9.778409 -4.39843,15.306639 v 16.79883 c 0,6.27 1.57377,11.81808 4.72265,16.5957 l 0.002,0.002 0.002,0.002 c 3.1427,4.65986 7.42877,8.34817 12.83008,11.04883 l 0.004,0.002 0.004,0.002 c 5.40953,2.59658 11.62232,3.88867 18.61719,3.88867 5.16166,1e-5 9.64174,-0.64452 13.4414,-1.94726 l 0.004,-0.002 h 0.004 c 3.8752,-1.39938 6.85848,-2.96461 8.95312,-4.72852 l 0.004,-0.006 0.006,-0.004 c 2.07386,-1.85556 3.20703,-3.54161 3.20703,-5.17187 0,-0.8419 -0.23739,-1.75971 -0.6836,-2.76367 -0.45556,-1.02502 -1.15084,-1.88748 -2.05468,-2.57227 -0.83604,-0.82116 -1.93578,-1.24414 -3.20118,-1.24414 -1.32484,0 -2.74728,0.58874 -4.29101,1.69141 l 0.0195,-0.0137 c -1.46398,0.94113 -3.36371,1.94604 -5.69531,3.00586 -2.25054,1.02297 -5.33276,1.55468 -9.23438,1.55468 -6.63534,0 -11.99934,-1.67642 -16.16601,-5.00976 -4.15514,-3.43103 -6.21289,-7.99843 -6.21289,-13.84961 v -4.29883 h 34.69922 c 2.37696,0 4.65045,-0.21681 6.81835,-0.65039 2.24648,-0.4493 4.12975,-1.65029 5.58008,-3.54688 l 0.004,-0.006 0.004,-0.006 c 1.4896,-2.06252 2.17383,-5.25144 2.17383,-9.57227 0,-5.84333 -1.46689,-11.01706 -4.40234,-15.474609 -2.81672,-4.43867 -6.61578,-7.966833 -11.37305,-10.5625 l -0.004,-0.002 c -4.66056,-2.600375 -9.81741,-3.900391 -15.43946,-3.900391 z m 0,1 c 5.46975,0 10.44331,1.259147 14.95508,3.777344 h 0.002 l 0.002,0.002 c 4.6246,2.52251 8.28893,5.925647 11.01758,10.228515 l 0.002,0.0039 0.004,0.0039 c 2.82455,4.289124 4.23633,9.247154 4.23633,14.923824 0,4.20776 -0.69948,7.20224 -1.98047,8.98047 -1.32237,1.72727 -2.9582,2.76625 -4.97656,3.16992 -2.09876,0.41975 -4.30668,0.63086 -6.62304,0.63086 H 447.9104 v 5.29883 c 0,6.09238 2.20827,11.0186 6.58203,14.62695 l 0.002,0.002 0.004,0.002 c 4.36665,3.49332 9.98636,5.22851 16.79101,5.22851 3.99171,0 7.20564,-0.53417 9.64844,-1.64453 2.36174,-1.07351 4.29958,-2.09535 5.82227,-3.07422 l 0.0117,-0.006 0.01,-0.008 c 1.44293,-1.03067 2.68717,-1.50586 3.70898,-1.50586 1.06728,0 1.87133,0.31859 2.52539,0.97266 l 0.0254,0.0254 0.0293,0.0215 c 0.78934,0.592 1.36855,1.31849 1.76172,2.20313 0.40713,0.91603 0.59766,1.70599 0.59766,2.35742 0,1.14186 -0.89409,2.65125 -2.86914,4.41992 -1.95858,1.64754 -4.83963,3.17625 -8.64063,4.54883 -3.66553,1.25563 -8.03434,1.89063 -13.10937,1.89062 -6.8718,0 -12.92647,-1.26759 -18.1836,-3.79101 -5.26052,-2.63148 -9.39701,-6.19561 -12.43945,-10.70508 -3.03778,-4.60904 -4.55859,-9.94159 -4.55859,-16.04492 V 113.6756 c 0,-5.34879 1.41072,-10.25836 4.24023,-14.767573 2.94498,-4.522642 6.77621,-8.144786 11.51172,-10.880859 4.72499,-2.729992 9.91009,-4.091797 15.58984,-4.091797 z m -0.16015,9.560547 c -3.38516,0 -6.51884,0.823943 -9.36524,2.464844 -2.84099,1.531617 -5.14817,3.672562 -6.89648,6.404292 -1.75562,2.74315 -2.63867,5.78143 -2.63867,9.07032 v 6.25976 h 0.5 29.59961 c 2.91703,0 4.83105,-0.25854 5.90039,-1.06054 l 0.004,-0.002 0.002,-0.002 c 1.13305,-0.88126 1.63476,-2.44907 1.63476,-4.55469 0,-3.27814 -0.82659,-6.30601 -2.4668,-9.04492 -1.53408,-2.84538 -3.733,-5.155103 -6.57226,-6.902344 -2.85375,-1.756152 -6.10037,-2.632812 -9.70117,-2.632812 z m 0,1 c 3.43919,0 6.48481,0.827194 9.17773,2.484375 2.7045,1.664304 4.76833,3.833981 6.2207,6.531251 l 0.006,0.0117 0.006,0.01 c 1.55461,2.59101 2.33008,5.42631 2.33008,8.54297 0,1.94613 -0.46032,3.14918 -1.24609,3.76172 -6.4e-4,5e-4 -0.001,0.001 -0.002,0.002 -0.6412,0.4765 -2.45639,0.85547 -5.29296,0.85547 H 448.9104 v -5.25976 c 0,-3.11111 0.82275,-5.94107 2.48046,-8.53125 1.66323,-2.59879 3.83547,-4.613631 6.53711,-6.068362 l 0.006,-0.0039 0.006,-0.0039 c 2.69883,-1.557016 5.64508,-2.332031 8.8711,-2.332031 z"
           id="path943" />
      </g>
      <g
         id="g945"
         style="opacity:1"
         transform="translate(23.529291,2.6910407)">
        <path
           style="color:#000000;font-style:normal;font-variant:normal;font-weight:500;font-stretch:normal;font-size:160px;line-height:1.25;font-family:Dosis;-inkscape-font-specification:'Dosis Medium';font-variant-ligatures:normal;font-variant-position:normal;font-variant-caps:normal;font-variant-numeric:normal;font-variant-alternates:normal;font-variant-east-asian:normal;font-feature-settings:normal;font-variation-settings:normal;text-indent:0;text-align:start;text-decoration:none;text-decoration-line:none;text-decoration-style:solid;text-decoration-color:#000000;letter-spacing:normal;word-spacing:0px;text-transform:none;writing-mode:lr-tb;direction:ltr;text-orientation:mixed;dominant-baseline:auto;baseline-shift:baseline;text-anchor:start;white-space:normal;shape-padding:0;shape-margin:0;inline-size:0;clip-rule:nonzero;display:inline;overflow:visible;visibility:visible;isolation:auto;mix-blend-mode:normal;color-interpolation:sRGB;color-interpolation-filters:linearRGB;solid-color:#000000;solid-opacity:1;vector-effect:none;fill:#000000;fill-opacity:1;fill-rule:nonzero;stroke:none;stroke-width:1;stroke-linecap:butt;stroke-linejoin:miter;stroke-miterlimit:4;stroke-dasharray:none;stroke-dashoffset:0;stroke-opacity:1;color-rendering:auto;image-rendering:auto;shape-rendering:auto;text-rendering:auto;enable-background:accumulate;stop-color:#000000;stop-opacity:1"
           d="m 517.20957,161.19537 c -2.45333,0 -4.48,-0.85333 -6.08,-2.56 -1.6,-1.70667 -2.4,-3.62667 -2.4,-5.76 0,-2.34667 0.8,-4.32 2.4,-5.92 1.6,-1.70667 3.62667,-2.56 6.08,-2.56 2.13333,0 4,0.85333 5.6,2.56 1.70667,1.6 2.56,3.57333 2.56,5.92 0,2.13333 -0.85333,4.05333 -2.56,5.76 -1.6,1.70667 -3.46667,2.56 -5.6,2.56 z"
           id="path947" />
        <path
           style="color:#000000;font-style:normal;font-variant:normal;font-weight:500;font-stretch:normal;font-size:160px;line-height:1.25;font-family:Dosis;-inkscape-font-specification:'Dosis Medium';font-variant-ligatures:normal;font-variant-position:normal;font-variant-caps:normal;font-variant-numeric:normal;font-variant-alternates:normal;font-variant-east-asian:normal;font-feature-settings:normal;font-variation-settings:normal;text-indent:0;text-align:start;text-decoration:none;text-decoration-line:none;text-decoration-style:solid;text-decoration-color:#000000;letter-spacing:normal;word-spacing:0px;text-transform:none;writing-mode:lr-tb;direction:ltr;text-orientation:mixed;dominant-baseline:auto;baseline-shift:baseline;text-anchor:start;white-space:normal;shape-padding:0;shape-margin:0;inline-size:0;clip-rule:nonzero;display:inline;overflow:visible;visibility:visible;isolation:auto;mix-blend-mode:normal;color-interpolation:sRGB;color-interpolation-filters:linearRGB;solid-color:#000000;solid-opacity:1;vector-effect:none;fill-opacity:1;fill-rule:nonzero;stroke:none;stroke-width:1;stroke-linecap:butt;stroke-linejoin:miter;stroke-miterlimit:4;stroke-dasharray:none;stroke-dashoffset:0;stroke-opacity:1;color-rendering:auto;image-rendering:auto;shape-rendering:auto;text-rendering:auto;enable-background:accumulate;stop-color:#000000;stop-opacity:1"
           d="m 517.20898,143.89453 c -2.5677,0 -4.75266,0.91928 -6.43945,2.7168 -1.68088,1.68508 -2.53906,3.80745 -2.53906,6.26367 0,2.25833 0.86406,4.31906 2.53515,6.10156 1.68722,1.79969 3.87409,2.71875 6.44336,2.71875 2.26525,0 4.28572,-0.93144 5.96094,-2.71679 9.7e-4,-9.8e-4 0.003,-9.8e-4 0.004,-0.002 1.77278,-1.7777 2.69531,-3.8398 2.69531,-6.10156 0,-2.46099 -0.9193,-4.58831 -2.70508,-6.26953 -1.67404,-1.78118 -3.69254,-2.71094 -5.95508,-2.71094 z m 0,1 c 2,0 3.71217,0.77657 5.23633,2.40235 l 0.01,0.0117 0.0117,0.0117 c 1.61768,1.51658 2.40234,3.32924 2.40234,5.55469 0,2 -0.78105,3.77324 -2.41406,5.40625 l -0.004,0.006 -0.006,0.006 c -1.52416,1.62577 -3.23633,2.40234 -5.23633,2.40234 -2.33739,0 -4.20205,-0.7887 -5.71484,-2.40234 -1.5289,-1.63083 -2.26367,-3.40964 -2.26367,-5.41797 0,-2.23303 0.73838,-4.05283 2.25195,-5.56641 l 0.006,-0.006 0.006,-0.006 c 1.51279,-1.61365 3.37745,-2.40235 5.71484,-2.40235 z"
           id="path949" />
      </g>
      <g
         id="g951"
         style="opacity:1"
         transform="translate(23.529291,2.6910407)">
        <path
           style="color:#000000;font-style:normal;font-variant:normal;font-weight:500;font-stretch:normal;font-size:160px;line-height:1.25;font-family:Dosis;-inkscape-font-specification:'Dosis Medium';font-variant-ligatures:normal;font-variant-position:normal;font-variant-caps:normal;font-variant-numeric:normal;font-variant-alternates:normal;font-variant-east-asian:normal;font-feature-settings:normal;font-variation-settings:normal;text-indent:0;text-align:start;text-decoration:none;text-decoration-line:none;text-decoration-style:solid;text-decoration-color:#000000;letter-spacing:normal;word-spacing:0px;text-transform:none;writing-mode:lr-tb;direction:ltr;text-orientation:mixed;dominant-baseline:auto;baseline-shift:baseline;text-anchor:start;white-space:normal;shape-padding:0;shape-margin:0;inline-size:0;clip-rule:nonzero;display:inline;overflow:visible;visibility:visible;isolation:auto;mix-blend-mode:normal;color-interpolation:sRGB;color-interpolation-filters:linearRGB;solid-color:#000000;solid-opacity:1;vector-effect:none;fill:#000000;fill-opacity:1;fill-rule:nonzero;stroke:none;stroke-width:1;stroke-linecap:butt;stroke-linejoin:miter;stroke-miterlimit:4;stroke-dasharray:none;stroke-dashoffset:0;stroke-opacity:1;color-rendering:auto;image-rendering:auto;shape-rendering:auto;text-rendering:auto;enable-background:accumulate;stop-color:#000000;stop-opacity:1"
           d="m 532.08936,196.87537 c -2.56,0 -4.37333,-0.64 -5.44,-1.92 -1.06667,-1.17333 -1.6,-2.45333 -1.6,-3.84 0,-1.81333 0.58667,-3.25333 1.76,-4.32 1.06667,-1.06667 2.29333,-1.6 3.68,-1.6 3.09333,0 5.33333,-0.8 6.72,-2.4 1.49333,-1.6 2.4,-3.84 2.72,-6.72 0.42667,-2.77333 0.64,-5.92 0.64,-9.44 V 89.035367 c 0,-1.386667 0.64,-2.506667 1.92,-3.36 1.28,-0.853333 2.82667,-1.28 4.64,-1.28 1.92,0 3.52,0.426667 4.8,1.28 1.28,0.853333 1.92,1.973333 1.92,3.36 v 77.600003 c 0,5.86667 -0.74667,11.09333 -2.24,15.68 -1.49333,4.58667 -3.84,8.16 -7.04,10.72 -3.2,2.56 -7.36,3.84 -12.48,3.84 z m 15.04,-133.280003 c -2.24,0 -4.21333,-0.746667 -5.92,-2.24 -1.6,-1.6 -2.4,-3.413333 -2.4,-5.44 0,-2.026667 0.8,-3.786667 2.4,-5.28 1.70667,-1.493333 3.68,-2.24 5.92,-2.24 2.34667,0 4.26667,0.746667 5.76,2.24 1.6,1.493333 2.4,3.253333 2.4,5.28 0,2.026667 -0.8,3.84 -2.4,5.44 -1.49333,1.493333 -3.41333,2.24 -5.76,2.24 z"
           id="path953" />
        <path
           style="color:#000000;font-style:normal;font-variant:normal;font-weight:500;font-stretch:normal;font-size:160px;line-height:1.25;font-family:Dosis;-inkscape-font-specification:'Dosis Medium';font-variant-ligatures:normal;font-variant-position:normal;font-variant-caps:normal;font-variant-numeric:normal;font-variant-alternates:normal;font-variant-east-asian:normal;font-feature-settings:normal;font-variation-settings:normal;text-indent:0;text-align:start;text-decoration:none;text-decoration-line:none;text-decoration-style:solid;text-decoration-color:#000000;letter-spacing:normal;word-spacing:0px;text-transform:none;writing-mode:lr-tb;direction:ltr;text-orientation:mixed;dominant-baseline:auto;baseline-shift:baseline;text-anchor:start;white-space:normal;shape-padding:0;shape-margin:0;inline-size:0;clip-rule:nonzero;display:inline;overflow:visible;visibility:visible;isolation:auto;mix-blend-mode:normal;color-interpolation:sRGB;color-interpolation-filters:linearRGB;solid-color:#000000;solid-opacity:1;vector-effect:none;fill-opacity:1;fill-rule:nonzero;stroke:none;stroke-width:1;stroke-linecap:butt;stroke-linejoin:miter;stroke-miterlimit:4;stroke-dasharray:none;stroke-dashoffset:0;stroke-opacity:1;color-rendering:auto;image-rendering:auto;shape-rendering:auto;text-rendering:auto;enable-background:accumulate;stop-color:#000000;stop-opacity:1"
           d="m 547.12891,47.894531 c -2.35111,0 -4.4598,0.800515 -6.24805,2.365235 l -0.006,0.0039 -0.006,0.0059 c -1.68248,1.570317 -2.56055,3.488239 -2.56055,5.646485 0,2.158245 0.87224,4.118329 2.54688,5.792968 l 0.0117,0.01172 0.0137,0.01172 c 1.78825,1.56472 3.89694,2.363281 6.24805,2.363281 2.45272,0 4.52735,-0.800788 6.11328,-2.386719 1.67464,-1.674639 2.54687,-3.634723 2.54687,-5.792968 0,-2.154983 -0.87523,-4.069683 -2.55273,-5.638672 -1.58528,-1.582527 -3.65734,-2.382813 -6.10742,-2.382813 z m 0,1 c 2.2406,0 4.00551,0.693014 5.40625,2.09375 l 0.006,0.0059 0.008,0.0059 c 1.51752,1.41635 2.24023,3.020928 2.24023,4.916016 0,1.895087 -0.72854,3.560576 -2.2539,5.085937 -1.40074,1.400736 -3.16565,2.09375 -5.40625,2.09375 -2.12399,0 -3.95582,-0.694051 -5.57813,-2.109375 -1.51503,-1.521234 -2.24219,-3.181508 -2.24219,-5.070312 0,-1.891827 0.72415,-3.49365 2.23633,-4.908204 1.6237,-1.418633 3.45755,-2.113281 5.58399,-2.113281 z m 0,35 c -1.89177,0 -3.54535,0.451453 -4.91602,1.365235 -1.38401,0.92267 -2.14258,2.234877 -2.14258,3.77539 v 77.599614 c 0,3.49979 -0.21293,6.62332 -0.63476,9.36523 l -0.002,0.01 -0.002,0.01 c -0.31169,2.80526 -1.18451,4.93192 -2.58789,6.43555 l -0.006,0.006 -0.006,0.008 c -1.26615,1.46095 -3.33467,2.22656 -6.3418,2.22656 -1.5093,0 -2.88071,0.60122 -4.02148,1.73633 -1.27413,1.16115 -1.91992,2.76511 -1.91992,4.68359 0,1.51037 0.59658,2.92089 1.72265,4.16407 1.1931,1.42747 3.1783,2.0957 5.81836,2.0957 5.20334,0 9.48944,-1.30796 12.79102,-3.94922 3.28412,-2.62729 5.68572,-6.29448 7.20312,-10.95508 1.51277,-4.64634 2.26563,-9.92684 2.26563,-15.83593 V 89.035156 c 0,-1.540513 -0.75857,-2.85272 -2.14258,-3.77539 -1.376,-0.917338 -3.08405,-1.365235 -5.07812,-1.365235 z m 0,1 c 1.84592,0 3.33944,0.407936 4.52343,1.197266 1.176,0.783996 1.69727,1.710539 1.69727,2.943359 v 77.599614 c 0,5.82424 -0.74094,10.99839 -2.21484,15.52539 -1.46927,4.51273 -3.76108,7.99167 -6.87696,10.48437 -3.09842,2.47874 -7.1313,3.73047 -12.16797,3.73047 -2.47666,0 -4.11591,-0.61136 -5.05664,-1.74023 l -0.006,-0.008 -0.008,-0.008 c -1.00072,-1.10079 -1.4707,-2.24544 -1.4707,-3.50391 0,-1.70549 0.52867,-2.97741 1.59765,-3.94921 l 0.008,-0.008 0.008,-0.01 c 0.99006,-0.99007 2.06966,-1.45313 3.32812,-1.45313 3.17512,0 5.58225,-0.83228 7.08985,-2.5664 1.57901,-1.69546 2.51764,-4.04634 2.8457,-6.9961 0.42972,-2.80049 0.64453,-5.96512 0.64453,-9.49804 V 89.035156 c 0,-1.23282 0.52127,-2.159363 1.69727,-2.943359 1.18933,-0.792885 2.62642,-1.197266 4.36133,-1.197266 z"
           id="path955" />
      </g>
      <g
         id="g957"
         style="opacity:1"
         transform="translate(23.529291,2.6910407)">
        <path
           style="color:#000000;font-style:normal;font-variant:normal;font-weight:500;font-stretch:normal;font-size:160px;line-height:1.25;font-family:Dosis;-inkscape-font-specification:'Dosis Medium';font-variant-ligatures:normal;font-variant-position:normal;font-variant-caps:normal;font-variant-numeric:normal;font-variant-alternates:normal;font-variant-east-asian:normal;font-feature-settings:normal;font-variation-settings:normal;text-indent:0;text-align:start;text-decoration:none;text-decoration-line:none;text-decoration-style:solid;text-decoration-color:#000000;letter-spacing:normal;word-spacing:0px;text-transform:none;writing-mode:lr-tb;direction:ltr;text-orientation:mixed;dominant-baseline:auto;baseline-shift:baseline;text-anchor:start;white-space:normal;shape-padding:0;shape-margin:0;inline-size:0;clip-rule:nonzero;display:inline;overflow:visible;visibility:visible;isolation:auto;mix-blend-mode:normal;color-interpolation:sRGB;color-interpolation-filters:linearRGB;solid-color:#000000;solid-opacity:1;vector-effect:none;fill:#000000;fill-opacity:1;fill-rule:nonzero;stroke:none;stroke-width:1;stroke-linecap:butt;stroke-linejoin:miter;stroke-miterlimit:4;stroke-dasharray:none;stroke-dashoffset:0;stroke-opacity:1;color-rendering:auto;image-rendering:auto;shape-rendering:auto;text-rendering:auto;enable-background:accumulate;stop-color:#000000;stop-opacity:1"
           d="m 594.64931,161.51537 c -5.12,0 -9.65333,-0.64 -13.6,-1.92 -3.94667,-1.38667 -7.04,-2.98667 -9.28,-4.8 -2.24,-1.81333 -3.36,-3.62667 -3.36,-5.44 0,-0.85333 0.21333,-1.70667 0.64,-2.56 0.42667,-0.96 0.96,-1.76 1.6,-2.4 0.74667,-0.74667 1.54667,-1.12 2.4,-1.12 1.28,0 2.66667,0.64 4.16,1.92 1.49333,1.17333 3.52,2.4 6.08,3.68 2.56,1.28 6.24,1.92 11.04,1.92 5.65333,0 9.6,-1.01333 11.84,-3.04 2.24,-2.13333 3.36,-4.48 3.36,-7.04 0,-3.30667 -0.96,-5.81333 -2.88,-7.52 -1.92,-1.81333 -4.37333,-3.2 -7.36,-4.16 -2.98667,-1.06667 -6.13333,-2.08 -9.44,-3.04 -3.30667,-0.96 -6.45333,-2.13333 -9.44,-3.52 -2.98667,-1.49333 -5.44,-3.52 -7.36,-6.08 -1.81333,-2.66667 -2.72,-6.18667 -2.72,-10.56 0,-3.52 0.85333,-6.986668 2.56,-10.400003 1.70667,-3.413333 4.48,-6.24 8.32,-8.48 3.84,-2.346667 8.96,-3.52 15.36,-3.52 3.73333,0 7.30667,0.426667 10.72,1.28 3.52,0.746667 6.34667,1.813333 8.48,3.2 2.24,1.28 3.36,2.666667 3.36,4.16 0,0.64 -0.21333,1.493333 -0.64,2.56 -0.42667,1.066667 -1.01333,2.026667 -1.76,2.88 -0.74667,0.853333 -1.70667,1.28 -2.88,1.28 -0.85333,0 -2.08,-0.373333 -3.68,-1.12 -1.49333,-0.853333 -3.36,-1.653333 -5.6,-2.4 -2.13333,-0.746667 -4.74667,-1.12 -7.84,-1.12 -3.52,0 -6.34667,0.64 -8.48,1.92 -2.13333,1.173333 -3.68,2.613334 -4.64,4.320003 -0.96,1.6 -1.44,3.25333 -1.44,4.96 0,2.66667 0.90667,4.74667 2.72,6.24 1.92,1.49333 4.37333,2.72 7.36,3.68 3.09333,0.85333 6.29333,1.76 9.6,2.72 3.30667,0.85333 6.45333,2.13333 9.44,3.84 2.98667,1.6 5.44,3.84 7.36,6.72 1.92,2.88 2.88,6.72 2.88,11.52 0,6.50667 -2.34667,11.73333 -7.04,15.68 -4.69333,3.84 -11.30667,5.76 -19.84,5.76 z"
           id="path959" />
        <path
           style="color:#000000;font-style:normal;font-variant:normal;font-weight:500;font-stretch:normal;font-size:160px;line-height:1.25;font-family:Dosis;-inkscape-font-specification:'Dosis Medium';font-variant-ligatures:normal;font-variant-position:normal;font-variant-caps:normal;font-variant-numeric:normal;font-variant-alternates:normal;font-variant-east-asian:normal;font-feature-settings:normal;font-variation-settings:normal;text-indent:0;text-align:start;text-decoration:none;text-decoration-line:none;text-decoration-style:solid;text-decoration-color:#000000;letter-spacing:normal;word-spacing:0px;text-transform:none;writing-mode:lr-tb;direction:ltr;text-orientation:mixed;dominant-baseline:auto;baseline-shift:baseline;text-anchor:start;white-space:normal;shape-padding:0;shape-margin:0;inline-size:0;clip-rule:nonzero;display:inline;overflow:visible;visibility:visible;isolation:auto;mix-blend-mode:normal;color-interpolation:sRGB;color-interpolation-filters:linearRGB;solid-color:#000000;solid-opacity:1;vector-effect:none;fill-opacity:1;fill-rule:nonzero;stroke:none;stroke-width:1;stroke-linecap:butt;stroke-linejoin:miter;stroke-miterlimit:4;stroke-dasharray:none;stroke-dashoffset:0;stroke-opacity:1;color-rendering:auto;image-rendering:auto;shape-rendering:auto;text-rendering:auto;enable-background:accumulate;stop-color:#000000;stop-opacity:1"
           d="m 596.56836,82.935547 c -6.46111,0 -11.67368,1.182634 -15.61914,3.59375 -3.90303,2.278656 -6.75497,5.175959 -8.50781,8.681641 -1.73742,3.474827 -2.61133,7.024192 -2.61133,10.625002 0,4.44244 0.92184,8.06807 2.80664,10.83984 l 0.006,0.01 0.006,0.01 c 1.96666,2.62222 4.48655,4.70129 7.53711,6.22657 l 0.006,0.004 0.008,0.004 c 3.01062,1.39778 6.1799,2.57819 9.50976,3.54492 3.29776,0.95741 6.43575,1.96826 9.41211,3.03125 l 0.008,0.004 0.008,0.002 c 2.92907,0.94148 5.31199,2.29216 7.16992,4.04687 l 0.004,0.006 0.006,0.004 c 1.80015,1.60014 2.71289,3.93659 2.71289,7.14648 0,2.41335 -1.03696,4.61195 -3.20313,6.67578 -7.4e-4,7.1e-4 -10e-4,0.001 -0.002,0.002 -2.08673,1.88131 -5.90824,2.90234 -11.49414,2.90234 -4.75556,0 -8.36821,-0.64309 -10.81641,-1.86719 -2.54012,-1.27006 -4.54245,-2.48285 -5.99609,-3.625 l 0.0176,0.0137 c -1.54693,-1.32594 -3.03967,-2.04102 -4.48633,-2.04102 -0.99917,0 -1.9399,0.45162 -2.75391,1.26563 -0.68594,0.68594 -1.24868,1.53798 -1.69531,2.53906 -0.45397,0.91051 -0.68945,1.84135 -0.68945,2.77539 0,2.01921 1.24157,3.96351 3.54492,5.82812 2.30317,1.86448 5.44467,3.48336 9.42773,4.88282 l 0.006,0.002 0.006,0.002 c 4.00702,1.29958 8.59224,1.94531 13.75391,1.94531 8.60833,0 15.34992,-1.939 20.1582,-5.87304 l 0.002,-0.002 0.002,-0.002 c 4.79692,-4.03378 7.21875,-9.43561 7.21875,-16.0625 0,-4.86666 -0.97373,-8.81215 -2.96485,-11.79883 -1.96267,-2.944 -4.48163,-5.2449 -7.53906,-6.88281 -3.01694,-1.72264 -6.1969,-3.01561 -9.53711,-3.87891 l -0.0137,-0.004 c -3.29689,-0.9571 -6.48692,-1.86167 -9.57227,-2.71289 -8.6e-4,-2.8e-4 -10e-4,-0.002 -0.002,-0.002 -2.93778,-0.94455 -5.33357,-2.14386 -7.19336,-3.5879 -4.2e-4,-3.4e-4 4.2e-4,-0.002 0,-0.002 -1.69975,-1.40039 -2.53711,-3.29886 -2.53711,-5.85156 0,-1.61292 0.44754,-3.17038 1.36719,-4.70313 l 0.004,-0.006 0.004,-0.006 c 0.90642,-1.611402 2.37393,-2.987685 4.44531,-4.126948 l 0.008,-0.0039 0.008,-0.0059 c 2.0293,-1.217579 4.76326,-1.847656 8.22266,-1.847656 3.0531,0 5.61357,0.370023 7.67578,1.091797 h 0.004 l 0.004,0.002 c 2.21741,0.739137 4.05539,1.528304 5.50977,2.359375 l 0.0176,0.0098 0.0176,0.0098 c 1.63087,0.761072 2.89341,1.166016 3.89258,1.166016 1.29454,0 2.42372,-0.500159 3.25586,-1.451172 0.78357,-0.895513 1.40071,-1.906078 1.84765,-3.023438 0.43948,-1.098683 0.67579,-1.993029 0.67579,-2.74414 0,-1.739064 -1.29555,-3.266602 -3.59766,-4.585938 -2.19923,-1.427395 -5.07322,-2.505511 -8.62109,-3.259765 l -0.0117,-0.002 c -3.45149,-0.861832 -7.06281,-1.292969 -10.83008,-1.292969 z m 0,1 c 3.69524,0 7.22789,0.422694 10.59961,1.265625 l 0.01,0.002 0.008,0.002 c 3.47859,0.737884 6.24819,1.788374 8.31054,3.128906 l 0.0137,0.0078 0.0117,0.0078 c 2.16728,1.238443 3.10743,2.48323 3.10743,3.726563 0,0.528889 -0.18966,1.338397 -0.60352,2.373047 -0.40639,1.015974 -0.96212,1.925174 -1.67187,2.736328 -0.6612,0.755654 -1.45179,1.109375 -2.50391,1.109375 -0.7075,0 -1.89962,-0.340004 -3.46875,-1.072266 l 0.0371,0.01953 c -1.53033,-0.874472 -3.42485,-1.686082 -5.68359,-2.439454 l -0.008,-0.002 c -2.20308,-0.769886 -4.86784,-1.144531 -7.99804,-1.144531 -3.57873,0 -6.49552,0.647292 -8.73243,1.988281 -10e-4,7.04e-4 -0.003,0.0012 -0.004,0.002 -2.1856,1.205265 -3.80539,2.705784 -4.81641,4.501959 -4.4e-4,7.8e-4 -0.002,0.001 -0.002,0.002 -0.99573,1.66374 -1.50391,3.40887 -1.50391,5.20508 0,2.78 0.97627,5.03882 2.90235,6.625 l 0.004,0.006 0.006,0.004 c 1.97819,1.5386 4.48482,2.78816 7.51367,3.76172 l 0.01,0.002 0.0117,0.004 c 3.09102,0.8527 6.28712,1.75738 9.59179,2.7168 l 0.008,0.004 0.008,0.002 c 3.26384,0.84228 6.36759,2.10402 9.31641,3.78906 l 0.006,0.004 0.006,0.002 c 2.91591,1.56209 5.30236,3.74065 7.17969,6.55664 1.84889,2.77333 2.79688,6.51081 2.79688,11.24414 0,6.38645 -2.27159,11.43732 -6.86133,15.29688 -4.57816,3.74373 -11.06373,5.64257 -19.51953,5.64257 -5.07591,0 -9.55443,-0.6353 -13.43946,-1.89453 -0.002,-6e-4 -0.004,-0.001 -0.006,-0.002 -3.90413,-1.37283 -6.94467,-2.95261 -9.11914,-4.71289 -2.17664,-1.76205 -3.17382,-3.44333 -3.17382,-5.05078 0,-0.77 0.18908,-1.54223 0.58593,-2.33594 l 0.006,-0.01 0.004,-0.0117 c 0.40573,-0.9129 0.9052,-1.65911 1.49609,-2.25 0.67933,-0.67933 1.33938,-0.97266 2.04688,-0.97266 1.11333,0 2.3962,0.56477 3.83594,1.79883 l 0.008,0.008 0.008,0.006 c 1.53302,1.20452 3.58614,2.44444 6.16602,3.73438 2.6718,1.3359 6.41922,1.97265 11.26367,1.97265 5.71308,0 9.77865,-1.0009 12.17383,-3.16797 l 0.006,-0.006 0.004,-0.004 c 2.31233,-2.20222 3.51563,-4.69651 3.51563,-7.40235 0,-3.40048 -1.00669,-6.0736 -3.04297,-7.88672 -1.97768,-1.86619 -4.49508,-3.28615 -7.5293,-4.26367 l -0.008,-0.002 c -2.9948,-1.06939 -6.14804,-2.08507 -9.46094,-3.04688 -3.27859,-0.95184 -6.39668,-2.1154 -9.35547,-3.48828 l -0.002,-0.002 c -2.91642,-1.45865 -5.29864,-3.42723 -7.16992,-5.91797 -1.73971,-2.56103 -2.63086,-5.96996 -2.63086,-10.27148 0,-3.43919 0.82994,-6.825896 2.50586,-10.17774 1.65915,-3.3183 4.35263,-6.070935 8.125,-8.271484 l 0.004,-0.002 0.006,-0.002 c 3.73454,-2.282217 8.75877,-3.447265 15.09766,-3.447265 z"
           id="path961" />
      </g>
    </g>
  </g>
</svg>
