<?xml version="1.0" encoding="UTF-8" standalone="no"?>
<svg
   viewBox="0 0 153 140"
   version="1.1"
   id="svg100"
   sodipodi:docname="zig-logo.svg"
   width="153"
   height="140"
   inkscape:version="1.2.2 (b0a8486541, 2022-12-01)"
   xmlns:inkscape="http://www.inkscape.org/namespaces/inkscape"
   xmlns:sodipodi="http://sodipodi.sourceforge.net/DTD/sodipodi-0.dtd"
   xmlns="http://www.w3.org/2000/svg"
   xmlns:svg="http://www.w3.org/2000/svg">
  <defs
     id="defs104" />
  <sodipodi:namedview
     id="namedview102"
     pagecolor="#505050"
     bordercolor="#eeeeee"
     borderopacity="1"
     inkscape:showpageshadow="0"
     inkscape:pageopacity="0"
     inkscape:pagecheckerboard="0"
     inkscape:deskcolor="#505050"
     showgrid="false"
     inkscape:zoom="2.9769196"
     inkscape:cx="84.651263"
     inkscape:cy="85.826975"
     inkscape:window-width="960"
     inkscape:window-height="1685"
     inkscape:window-x="0"
     inkscape:window-y="0"
     inkscape:window-maximized="1"
     inkscape:current-layer="svg100" />
  <g
     fill="#f7a41d"
     id="g98">
    <g
       id="g76">
      <polygon
         points="19,30 46,22 28,44 "
         id="polygon70" />
      <polygon
         points="28,44 22,44 22,95 31,95 20,100 12,117 0,117 0,22 46,22 33,33 "
         shape-rendering="crispEdges"
         id="polygon72" />
      <polygon
         points="4,106 31,95 12,117 "
         id="polygon74" />
    </g>
    <g
       id="g88">
      <polygon
         points="37,44 56,22 62,36 "
         id="polygon78" />
      <polygon
         points="111,44 37,44 56,32 56,22 111,22 "
         shape-rendering="crispEdges"
         id="polygon80" />
      <polygon
         points="90,104 116,95 97,117 "
         id="polygon82" />
      <polygon
         points="97,117 42,117 42,95 116,95 100,104 "
         shape-rendering="crispEdges"
         id="polygon84" />
      <polygon
         points="3,140 101,22 150,0 52,117 "
         id="polygon86" />
    </g>
    <g
       id="g96">
      <polygon
         points="122,45 141,22 140,40 "
         id="polygon90" />
      <polygon
         points="106,117 120,105 125,95 131,95 131,45 122,45 132,36 141,22 153,22 153,117 "
         shape-rendering="crispEdges"
         id="polygon92" />
      <polygon
         points="106,117 125,95 130,110 "
         id="polygon94" />
    </g>
  </g>
</svg>
